<?xml version="1.0" encoding="UTF-8" standalone="no"?>
<!-- Created with Inkscape (http://www.inkscape.org/) -->

<svg
   version="1.1"
   id="svg1"
   width="275.048"
   height="234.98666"
   viewBox="0 0 275.048 234.98666"
   sodipodi:docname="example_lect2_int.svg"
   inkscape:version="1.4.2 (ebf0e940, 2025-05-08)"
   xmlns:inkscape="http://www.inkscape.org/namespaces/inkscape"
   xmlns:sodipodi="http://sodipodi.sourceforge.net/DTD/sodipodi-0.dtd"
   xmlns="http://www.w3.org/2000/svg"
   xmlns:svg="http://www.w3.org/2000/svg">
  <defs
     id="defs1" />
  <sodipodi:namedview
     id="namedview1"
     pagecolor="#ffffff"
     bordercolor="#000000"
     borderopacity="0.25"
     inkscape:showpageshadow="2"
     inkscape:pageopacity="0.0"
     inkscape:pagecheckerboard="0"
     inkscape:deskcolor="#d1d1d1"
     inkscape:zoom="0.20426691"
     inkscape:cx="137.07556"
     inkscape:cy="117.49333"
     inkscape:window-width="896"
     inkscape:window-height="245"
     inkscape:window-x="0"
     inkscape:window-y="40"
     inkscape:window-maximized="0"
     inkscape:current-layer="g1">
    <inkscape:page
       x="0"
       y="0"
       inkscape:label="1"
       id="page1"
       width="275.048"
       height="234.98666"
       margin="0"
       bleed="0" />
  </sodipodi:namedview>
  <g
     id="g1"
     inkscape:groupmode="layer"
     inkscape:label="1">
    <path
       id="path1"
       d="M 0,-113.38724 H 170.08086 M 0,-85.04042 H 170.08086 M 0,-56.69362 H 170.08086 M 0,-28.3468 H 170.08086 M 0,0 H 170.08086 M 0,28.33684 H 170.08086 M 0,-113.38724 V 28.3468 M 28.3468,-113.38724 V 28.3468 M 56.69362,-113.38724 V 28.3468 m 28.3468,-141.73404 V 28.3468 m 28.34682,-141.73404 V 28.3468 m 28.3468,-141.73404 V 28.3468 m 28.33685,-141.73404 V 28.3468"
       style="fill:none;stroke:#ff9933;stroke-width:0.19925;stroke-linecap:butt;stroke-linejoin:miter;stroke-miterlimit:10;stroke-dasharray:2.98883, 2.98883;stroke-dashoffset:0;stroke-opacity:1"
       transform="matrix(1.3333333,0,0,-1.3333333,34.358667,83.673333)" />
    <path
       id="path2"
       d="M 0,0 H 169.62257"
       style="fill:none;stroke:#000000;stroke-width:0.3985;stroke-linecap:butt;stroke-linejoin:miter;stroke-miterlimit:10;stroke-dasharray:none;stroke-opacity:1"
       transform="matrix(1.3333333,0,0,-1.3333333,34.358667,83.673333)" />
    <path
       id="path3"
       d="M -1.19551,1.59401 C -1.09587,0.99626 0,0.09961 0.29886,0 0,-0.09961 -1.09587,-0.99626 -1.19551,-1.59401"
       style="fill:none;stroke:#000000;stroke-width:0.31879;stroke-linecap:round;stroke-linejoin:round;stroke-miterlimit:10;stroke-dasharray:none;stroke-opacity:1"
       transform="matrix(1.3333333,0,0,-1.3333333,260.52209,83.673333)" />
    <path
       id="path4"
       d="m 2.0509453,-3.9850156 h 0.9375 c 0.1992188,0 0.3046875,0 0.3046875,-0.1992188 0,-0.1054687 -0.1054687,-0.1054687 -0.28125,-0.1054687 H 2.1329766 c 0.3632812,-1.4179688 0.4101562,-1.6171875 0.4101562,-1.6757813 0,-0.1757812 -0.1171875,-0.2695312 -0.2929687,-0.2695312 -0.023437,0 -0.3046875,0.011719 -0.3984375,0.3515625 l -0.3867188,1.59375 H 0.52750781 c -0.19921875,0 -0.29296875,0 -0.29296875,0.1875 0,0.1171875 0.0703125,0.1171875 0.26953125,0.1171875 H 1.3829766 c -0.71484379,2.8242187 -0.75000004,2.99999998 -0.75000004,3.17578123 0,0.5390625 0.37500004,0.9140625 0.91406254,0.9140625 1.0078125,0 1.5820312,-1.45312503 1.5820312,-1.53515623 0,-0.09375 -0.082031,-0.09375 -0.1171875,-0.09375 -0.09375,0 -0.1054687,0.023437 -0.1523437,0.140625 -0.4335938,1.03124998 -0.9609375,1.27734373 -1.3007813,1.27734373 -0.1992187,0 -0.3046875,-0.12890625 -0.3046875,-0.45703125 0,-0.24609375 0.023437,-0.31640625 0.058594,-0.48046878 z m 0,0"
       style="fill:#000000;fill-opacity:1;fill-rule:nonzero;stroke:none"
       aria-label="t"
       transform="matrix(1.3333333,0,0,1.3333333,265.824,87.758667)" />
    <path
       id="path5"
       d="M 0,-42.5202 V 42.06192"
       style="fill:none;stroke:#000000;stroke-width:0.3985;stroke-linecap:butt;stroke-linejoin:miter;stroke-miterlimit:10;stroke-dasharray:none;stroke-opacity:1"
       transform="matrix(1.3333333,0,0,-1.3333333,34.358667,83.673333)" />
    <path
       id="path6"
       d="M -1.19551,1.59401 C -1.09587,0.99626 0,0.09961 0.29886,0 0,-0.09961 -1.09587,-0.99626 -1.19551,-1.59401"
       style="fill:none;stroke:#000000;stroke-width:0.31879;stroke-linecap:round;stroke-linejoin:round;stroke-miterlimit:10;stroke-dasharray:none;stroke-opacity:1"
       transform="matrix(0,-1.3333333,-1.3333333,0,34.358667,27.590773)" />
    <g
       id="g6"
       aria-label="R&#10;t&#10;0&#10;m(u)du"
       transform="matrix(1.3333333,0,0,1.3333333,4.428,6.8626667)">
      <path
         id="path7"
         d="M 2.7082969,8.7660859 C 2.5793906,10.394992 2.2278281,10.852023 1.6536094,10.852023 c -0.1289063,0 -0.421875,-0.03516 -0.6328125,-0.210937 0.28125,-0.04687 0.3632812,-0.269531 0.3632812,-0.410156 0,-0.2929691 -0.2226562,-0.4218753 -0.41015623,-0.4218753 -0.19921875,0 -0.41015625,0.1289062 -0.41015625,0.4335933 0,0.480469 0.49218748,0.820313 1.08984378,0.820313 0.9492187,0 1.4296875,-0.867188 1.640625,-1.7578126 0.1289062,-0.515625 0.4921875,-3.421875 0.5742187,-4.5234375 l 0.1875,-2.484375 c 0.140625,-1.82812496 0.4804688,-2.07421871 0.9257813,-2.07421871 0.1054687,0 0.4101562,0.0117188 0.6328125,0.2109375 -0.2929688,0.0351563 -0.375,0.26953125 -0.375,0.3984375 0,0.29296871 0.2226562,0.42187501 0.4101562,0.42187501 0.1992188,0 0.421875,-0.1289063 0.421875,-0.42187501 0,-0.48046875 -0.5039062,-0.8320312525 -1.1015625,-0.8320312525 -0.9492187,0 -1.3359375,0.9609375025 -1.5,1.7226562625 C 3.3528281,2.2738984 2.9895469,5.0863984 2.8957969,6.2817109 Z m 0,0"
         style="fill:#000000;fill-opacity:1;fill-rule:nonzero;stroke:none" />
      <path
         id="path8"
         d="m 8.350875,-0.28957812 h 0.7148437 c 0.1289063,0 0.2226563,0 0.2226563,-0.15234375 0,-0.09375 -0.09375,-0.09375 -0.2109375,-0.09375 h -0.65625 L 8.679,-1.5786406 c 0,-0.023437 0.023437,-0.058594 0.023437,-0.09375 0,-0.1289063 -0.1054688,-0.2226563 -0.2460938,-0.2226563 -0.1757812,0 -0.28125,0.1171875 -0.328125,0.3046875 -0.046875,0.1757813 0.046875,-0.1640625 -0.2578125,1.05468753 H 7.1555625 c -0.1289063,0 -0.2226563,0 -0.2226563,0.15234375 0,0.09375 0.082031,0.09375 0.2109375,0.09375 h 0.65625 L 7.3899375,1.3510469 c -0.035156,0.1757812 -0.1054688,0.4335937 -0.1054688,0.515625 0,0.421875 0.3515625,0.6679687 0.75,0.6679687 0.7734375,0 1.21875,-0.9726562 1.21875,-1.0664062 0,-0.09375 -0.09375,-0.09375 -0.1171875,-0.09375 -0.082031,0 -0.09375,0.011719 -0.140625,0.1289062 -0.1992187,0.4453125 -0.5507812,0.8320313 -0.9375,0.8320313 -0.1523437,0 -0.2460937,-0.082031 -0.2460937,-0.3398438 0,-0.070312 0.023437,-0.2109375 0.046875,-0.28125 z m 0,0"
         style="fill:#000000;fill-opacity:1;fill-rule:nonzero;stroke:none" />
      <path
         id="path9"
         d="m 8.3010703,9.3403047 c 0,-0.7617188 -0.09375,-1.3125 -0.4101562,-1.8046875 C 7.6682578,7.2192109 7.2463828,6.9379609 6.6838828,6.9379609 c -1.6171875,0 -1.6171875,1.8984375 -1.6171875,2.4023438 0,0.5039062 0,2.3671873 1.6171875,2.3671873 1.6171875,0 1.6171875,-1.8632811 1.6171875,-2.3671873 z M 6.6838828,11.508273 c -0.3164062,0 -0.75,-0.1875 -0.890625,-0.761718 -0.09375,-0.410157 -0.09375,-0.9843753 -0.09375,-1.5000003 0,-0.5039063 0,-1.03125 0.1054688,-1.4179688 0.1523437,-0.5507812 0.5976562,-0.6914062 0.8789062,-0.6914062 0.375,0 0.7382813,0.2226562 0.8671875,0.6328125 0.1054688,0.375 0.1171875,0.8789062 0.1171875,1.4765625 0,0.515625 0,1.0429683 -0.09375,1.4765623 -0.140625,0.632813 -0.609375,0.785156 -0.890625,0.785156 z m 0,0"
         style="fill:#000000;fill-opacity:1;fill-rule:nonzero;stroke:none" />
      <path
         id="path10"
         d="m 12.686812,7.4389375 c -0.03516,0.1523438 -0.09375,0.375 -0.09375,0.421875 0,0.1875 0.140625,0.2695313 0.292969,0.2695313 0.117188,0 0.292969,-0.070312 0.363281,-0.2695313 0.01172,-0.023437 0.128907,-0.4921875 0.1875,-0.7382812 l 0.222657,-0.9023438 c 0.05859,-0.2226562 0.117187,-0.4335937 0.175781,-0.6679687 0.03516,-0.1640625 0.117187,-0.4570313 0.128906,-0.4921875 0.140625,-0.3164063 0.667969,-1.21875 1.617188,-1.21875 0.445312,0 0.539062,0.3632812 0.539062,0.6914062 0,0.2578125 -0.07031,0.5390625 -0.152344,0.8320313 l -0.269531,1.1601562 -0.199219,0.75 c -0.04687,0.1992188 -0.140625,0.5390625 -0.140625,0.5859375 0,0.1875 0.140625,0.2695313 0.292969,0.2695313 0.304688,0 0.375,-0.2460938 0.445313,-0.5625 0.140625,-0.5625 0.515625,-2.015625 0.597656,-2.4023438 0.03516,-0.1289062 0.5625,-1.3242187 1.652344,-1.3242187 0.421875,0 0.539062,0.3398437 0.539062,0.6914062 0,0.5742188 -0.421875,1.7109375 -0.621094,2.2382813 -0.09375,0.234375 -0.128906,0.3515625 -0.128906,0.5507812 0,0.46875 0.351563,0.8085938 0.808594,0.8085938 0.9375,0 1.3125,-1.453125 1.3125,-1.5351563 0,-0.09375 -0.09375,-0.09375 -0.117188,-0.09375 -0.105468,0 -0.105468,0.023437 -0.152343,0.1757813 -0.152344,0.5273437 -0.46875,1.2421875 -1.019532,1.2421875 -0.164062,0 -0.234375,-0.1054688 -0.234375,-0.328125 0,-0.2578125 0.08203,-0.4921875 0.175782,-0.7148438 0.1875,-0.515625 0.609375,-1.6171875 0.609375,-2.1914062 0,-0.6445313 -0.398438,-1.0664063 -1.148438,-1.0664063 -0.75,0 -1.253906,0.4453125 -1.617187,0.9726563 C 16.7415,4.462375 16.706344,4.1225313 16.425094,3.8764375 16.179,3.6772188 15.862594,3.618625 15.6165,3.618625 c -0.902344,0 -1.382813,0.6445313 -1.558594,0.8671875 -0.04687,-0.5625 -0.46875,-0.8671875 -0.914062,-0.8671875 -0.457032,0 -0.644532,0.3867188 -0.738282,0.5742188 -0.175781,0.3398437 -0.304687,0.9375 -0.304687,0.9609375 0,0.1054687 0.09375,0.1054687 0.117187,0.1054687 0.09375,0 0.105469,-0.011719 0.164063,-0.234375 0.175781,-0.703125 0.375,-1.1835937 0.726562,-1.1835937 0.164063,0 0.316407,0.082031 0.316407,0.4570312 0,0.2109375 -0.03516,0.3164063 -0.164063,0.8320313 z m 0,0"
         style="fill:#000000;fill-opacity:1;fill-rule:nonzero;stroke:none" />
      <path
         id="path11"
         d="m 23.848922,10.4155 c 0,-0.03516 0,-0.04687 -0.164063,-0.222656 -1.242187,-1.2539065 -1.570312,-3.1289065 -1.570312,-4.6640627 0,-1.7226563 0.386719,-3.4570313 1.605469,-4.71093755 0.128906,-0.1171875 0.128906,-0.12890625 0.128906,-0.1640625 0,-0.0703125 -0.03516,-0.10546875 -0.09375,-0.10546875 -0.105469,0 -0.996094,0.6796875 -1.582031,1.9453125 -0.515625,1.1015625 -0.632813,2.203125 -0.632813,3.0351563 0,0.7851562 0.117188,1.9921875 0.65625,3.1171875 0.597656,1.21875 1.453125,1.8750002 1.558594,1.8750002 0.05859,0 0.09375,-0.03516 0.09375,-0.105469 z m 0,0"
         style="fill:#000000;fill-opacity:1;fill-rule:nonzero;stroke:none" />
      <path
         id="path12"
         d="m 27.924117,7.462375 c 0.105469,0.4101563 0.457031,0.6679688 0.878906,0.6679688 0.351563,0 0.574219,-0.2226563 0.738282,-0.5390625 C 29.717086,7.228 29.845992,6.618625 29.845992,6.5951875 c 0,-0.09375 -0.09375,-0.09375 -0.128906,-0.09375 -0.09375,0 -0.105469,0.035156 -0.140625,0.1757813 -0.128906,0.5625 -0.328125,1.2421875 -0.738281,1.2421875 -0.210938,0 -0.316407,-0.1289063 -0.316407,-0.4570313 0,-0.2226562 0.128907,-0.6914062 0.199219,-1.0429687 l 0.28125,-1.078125 c 0.03516,-0.140625 0.128906,-0.5273438 0.175781,-0.6679688 0.04687,-0.234375 0.140625,-0.609375 0.140625,-0.6679687 0,-0.1875 -0.140625,-0.2695313 -0.28125,-0.2695313 -0.05859,0 -0.316406,0 -0.386718,0.3398438 -0.199219,0.7265625 -0.632813,2.4726562 -0.75,3 -0.01172,0.046875 -0.410157,0.84375 -1.136719,0.84375 -0.515625,0 -0.621094,-0.4570313 -0.621094,-0.8203125 0,-0.5625 0.28125,-1.3476563 0.539063,-2.0273438 0.117187,-0.3046875 0.175781,-0.4453125 0.175781,-0.6328125 0,-0.4453125 -0.328125,-0.8203125 -0.820313,-0.8203125 -0.949218,0 -1.3125,1.453125 -1.3125,1.5351563 0,0.1054687 0.09375,0.1054687 0.117188,0.1054687 0.09375,0 0.105469,-0.023437 0.152344,-0.1875 0.257812,-0.8671875 0.632812,-1.2304687 1.007812,-1.2304687 0.09375,0 0.257813,0.011719 0.257813,0.328125 0,0.234375 -0.117188,0.5273437 -0.175782,0.6796875 -0.363281,0.984375 -0.574218,1.6054687 -0.574218,2.0859375 0,0.9492187 0.679687,1.1953125 1.21875,1.1953125 0.65625,0 1.019531,-0.4453125 1.195312,-0.6679688 z m 0,0"
         style="fill:#000000;fill-opacity:1;fill-rule:nonzero;stroke:none" />
      <path
         id="path13"
         d="m 33.015914,5.5287813 c 0,-0.7734375 -0.117187,-1.9804688 -0.65625,-3.1054688 -0.597656,-1.21875 -1.464844,-1.875 -1.558594,-1.875 -0.05859,0 -0.105468,0.046875 -0.105468,0.10546875 0,0.0351563 0,0.046875 0.199218,0.234375 0.972657,0.98437505 1.535157,2.56640625 1.535157,4.64062505 0,1.7109375 -0.363282,3.4570312 -1.59375,4.7226567 -0.140625,0.117187 -0.140625,0.128906 -0.140625,0.164062 0,0.05859 0.04687,0.105469 0.105468,0.105469 0.09375,0 0.996094,-0.6796877 1.582032,-1.9453127 0.503906,-1.1015625 0.632812,-2.203125 0.632812,-3.046875 z m 0,0"
         style="fill:#000000;fill-opacity:1;fill-rule:nonzero;stroke:none" />
      <path
         id="path14"
         d="m 39.153609,1.2162813 c 0,0 0,-0.1054688 -0.128906,-0.1054688 -0.152344,0 -1.101562,0.09375 -1.265625,0.1054688 -0.08203,0.011719 -0.140625,0.070312 -0.140625,0.1992187 0,0.1171875 0.08203,0.1171875 0.234375,0.1171875 0.480469,0 0.503906,0.070312 0.503906,0.1640625 l -0.03516,0.1992188 -0.597656,2.3671875 c -0.175781,-0.375 -0.46875,-0.6445313 -0.914063,-0.6445313 -1.171875,0 -2.402343,1.4648438 -2.402343,2.9179688 0,0.9375 0.550781,1.59375 1.324218,1.59375 0.199219,0 0.703125,-0.035156 1.300782,-0.7382813 0.07031,0.4101563 0.421875,0.7382813 0.902343,0.7382813 0.351563,0 0.574219,-0.2226563 0.738282,-0.5390625 C 38.837203,7.228 38.966109,6.618625 38.966109,6.5951875 c 0,-0.09375 -0.08203,-0.09375 -0.117187,-0.09375 -0.09375,0 -0.105469,0.035156 -0.140625,0.1757813 -0.164063,0.6445312 -0.351563,1.2421875 -0.75,1.2421875 -0.269531,0 -0.304688,-0.2578125 -0.304688,-0.4570313 0,-0.2460937 0.02344,-0.3164062 0.05859,-0.4804687 z m -2.074218,5.625 c -0.04687,0.1757812 -0.04687,0.1992187 -0.199219,0.3632812 -0.445313,0.5507813 -0.84375,0.7148438 -1.125,0.7148438 -0.503906,0 -0.644531,-0.5507813 -0.644531,-0.9375 0,-0.5039063 0.328125,-1.7226563 0.550781,-2.1796875 0.304687,-0.5976563 0.761719,-0.9609375 1.160156,-0.9609375 0.644531,0 0.785156,0.8203125 0.785156,0.8789062 0,0.058594 -0.02344,0.1171875 -0.03516,0.1640625 z m 5.607421,0.6210937 c 0.105469,0.4101563 0.457032,0.6679688 0.878907,0.6679688 0.351562,0 0.574218,-0.2226563 0.738281,-0.5390625 C 44.479781,7.228 44.608687,6.618625 44.608687,6.5951875 c 0,-0.09375 -0.09375,-0.09375 -0.128906,-0.09375 -0.09375,0 -0.105469,0.035156 -0.140625,0.1757813 -0.128906,0.5625 -0.328125,1.2421875 -0.738281,1.2421875 -0.210938,0 -0.316406,-0.1289063 -0.316406,-0.4570313 0,-0.2226562 0.128906,-0.6914062 0.199218,-1.0429687 l 0.28125,-1.078125 c 0.03516,-0.140625 0.128907,-0.5273438 0.175782,-0.6679688 0.04687,-0.234375 0.140625,-0.609375 0.140625,-0.6679687 0,-0.1875 -0.140625,-0.2695313 -0.28125,-0.2695313 -0.05859,0 -0.316407,0 -0.386719,0.3398438 -0.199219,0.7265625 -0.632813,2.4726562 -0.75,3 -0.01172,0.046875 -0.410156,0.84375 -1.136719,0.84375 -0.515625,0 -0.621094,-0.4570313 -0.621094,-0.8203125 0,-0.5625 0.28125,-1.3476563 0.539063,-2.0273438 0.117187,-0.3046875 0.175781,-0.4453125 0.175781,-0.6328125 0,-0.4453125 -0.328125,-0.8203125 -0.820312,-0.8203125 -0.949219,0 -1.3125,1.453125 -1.3125,1.5351563 0,0.1054687 0.09375,0.1054687 0.117187,0.1054687 0.09375,0 0.105469,-0.023437 0.152344,-0.1875 0.257812,-0.8671875 0.632812,-1.2304687 1.007812,-1.2304687 0.09375,0 0.257813,0.011719 0.257813,0.328125 0,0.234375 -0.117188,0.5273437 -0.175781,0.6796875 -0.363282,0.984375 -0.574219,1.6054687 -0.574219,2.0859375 0,0.9492187 0.679687,1.1953125 1.21875,1.1953125 0.65625,0 1.019531,-0.4453125 1.195312,-0.6679688 z m 0,0"
         style="fill:#000000;fill-opacity:1;fill-rule:nonzero;stroke:none" />
    </g>
    <path
       id="path15"
       d="m 2.9292656,-6.3758125 c 0,-0.234375 0,-0.2578125 -0.234375,-0.2578125 -0.609375,0.6328125 -1.4882812,0.6328125 -1.80468748,0.6328125 v 0.3164063 c 0.19921878,0 0.78515628,0 1.30078128,-0.2578125 v 5.15624995 c 0,0.3515625 -0.035156,0.48046875 -0.9257813,0.48046875 H 0.94879687 V -8.125e-4 C 1.3003594,-0.03596875 2.1558281,-0.03596875 2.5542656,-0.03596875 c 0.3984375,0 1.265625,0 1.6171875,0.03515625 V -0.3055 H 3.8550469 c -0.9023438,0 -0.9257813,-0.1171875 -0.9257813,-0.48046875 z m 0,0"
       style="fill:#000000;fill-opacity:1;fill-rule:nonzero;stroke:none"
       aria-label="1"
       transform="matrix(1.3333333,0,0,1.3333333,23.024,50.157333)" />
    <path
       id="path16"
       d="M 2.7551484,-1.8647109 V -2.4389297 H 0.10671094 v 0.5742188 z m 3.4951172,-4.5117188 c 0,-0.234375 0,-0.2578125 -0.234375,-0.2578125 -0.609375,0.6328125 -1.4882812,0.6328125 -1.8046875,0.6328125 v 0.3164063 c 0.1992188,0 0.7851563,0 1.3007813,-0.2578125 v 5.15624996 c 0,0.3515625 -0.035156,0.48046875 -0.9257813,0.48046875 H 4.2697969 v 0.3046875 c 0.3515625,-0.03515625 1.2070312,-0.03515625 1.6054687,-0.03515625 0.3984375,0 1.265625,0 1.6171875,0.03515625 v -0.3046875 H 7.1760469 c -0.9023438,0 -0.9257813,-0.1171875 -0.9257813,-0.48046875 z m 0,0"
       style="fill:#000000;fill-opacity:1;fill-rule:nonzero;stroke:none"
       aria-label="-1"
       transform="matrix(1.3333333,0,0,1.3333333,18.596,125.748)" />
    <path
       id="path17"
       d="M 0,0 28.3468,28.3468 85.04042,-28.3468 113.38724,0 141.73404,-28.3468 170.08086,0"
       style="fill:none;stroke:#000000;stroke-width:0.3985;stroke-linecap:butt;stroke-linejoin:miter;stroke-miterlimit:10;stroke-dasharray:none;stroke-opacity:1"
       transform="matrix(1.3333333,0,0,-1.3333333,34.358667,83.673333)" />
  </g>
</svg>
