<?xml version="1.0" encoding="UTF-8" standalone="no"?>
<!-- Created with Inkscape (http://www.inkscape.org/) -->

<svg
   width="297mm"
   height="210mm"
   viewBox="0 0 297 210"
   version="1.1"
   id="svg1"
   xml:space="preserve"
   inkscape:version="1.4.2 (ebf0e940, 2025-05-08)"
   sodipodi:docname="GINGKO.svg"
   xmlns:inkscape="http://www.inkscape.org/namespaces/inkscape"
   xmlns:sodipodi="http://sodipodi.sourceforge.net/DTD/sodipodi-0.dtd"
   xmlns:xlink="http://www.w3.org/1999/xlink"
   xmlns="http://www.w3.org/2000/svg"
   xmlns:svg="http://www.w3.org/2000/svg"><sodipodi:namedview
     id="namedview1"
     pagecolor="#ffffff"
     bordercolor="#000000"
     borderopacity="0.25"
     inkscape:showpageshadow="2"
     inkscape:pageopacity="0.0"
     inkscape:pagecheckerboard="0"
     inkscape:deskcolor="#d1d1d1"
     inkscape:document-units="mm"
     inkscape:zoom="0.71078488"
     inkscape:cx="587.37884"
     inkscape:cy="523.3651"
     inkscape:window-width="1800"
     inkscape:window-height="1101"
     inkscape:window-x="0"
     inkscape:window-y="40"
     inkscape:window-maximized="1"
     inkscape:current-layer="layer1" /><defs
     id="defs1"><linearGradient
       id="linearGradient65"
       inkscape:collect="always"><stop
         style="stop-color:#ffda00;stop-opacity:0.87927109;"
         offset="0"
         id="stop64" /><stop
         style="stop-color:#ffac00;stop-opacity:0.97494304;"
         offset="0.5"
         id="stop77" /><stop
         style="stop-color:#ffda00;stop-opacity:0.99544418;"
         offset="1"
         id="stop65" /></linearGradient><linearGradient
       inkscape:collect="always"
       xlink:href="#linearGradient65"
       id="linearGradient66"
       gradientUnits="userSpaceOnUse"
       x1="213.98657"
       y1="96.865128"
       x2="83.18911"
       y2="96.865128" /></defs><g
     inkscape:groupmode="layer"
     id="layer2"
     inkscape:label="LEAF"
     style="display:inline"><g
       id="g66"><path
         id="path2"
         style="display:inline;fill:url(#linearGradient66);fill-opacity:1;stroke-width:0.365001;stroke-linecap:round;stroke-linejoin:round;stroke-dasharray:2.91999, 0.365001;paint-order:fill markers stroke"
         d="m 136.66866,50.284786 c -0.12012,-0.0046 -0.24484,-0.001 -0.35863,0.03772 -0.77196,0.262869 -1.27706,1.161626 -2.0836,1.282092 -1.25585,0.187576 -2.42198,-1.081179 -3.68608,-0.961182 -1.23701,0.117425 -2.33391,0.910076 -3.36568,1.602487 -1.31883,0.885058 -2.70003,1.848288 -3.52589,3.204972 -0.86246,1.4168 -1.32194,3.149794 -1.28209,4.807975 0.093,3.867798 2.14366,7.444658 3.52588,11.05824 3.07537,8.040048 8.01655,15.340435 10.57765,23.558769 0.61414,1.970705 1.73508,4.119065 1.1219,6.090067 -0.13467,0.43289 -0.51761,0.87054 -0.9617,0.9617 -1.12729,0.2314 -2.33734,-0.52668 -3.20549,-1.28209 -5.19865,-4.52355 -6.8269,-11.972797 -10.25674,-17.949812 -1.81049,-3.155058 -2.87186,-6.887771 -5.44876,-9.455237 -1.22046,-1.215993 -2.85316,-2.019357 -4.48758,-2.564185 -1.63436,-0.544808 -3.40722,-0.716061 -5.12837,-0.641304 -0.76421,0.03319 -1.54995,0.159077 -2.24379,0.481107 -1.34723,0.625285 -2.32358,1.85233 -3.52588,2.724382 -1.30733,0.948226 -2.848477,1.598651 -4.006478,2.724381 -0.850416,0.826716 -1.579411,1.810806 -2.083077,2.884579 -0.819895,1.747947 -1.12106,3.705789 -1.442806,5.609476 -0.214399,1.268542 0.184976,2.663159 -0.320394,3.846277 -0.728427,1.705315 -2.275728,2.962673 -3.68608,4.166671 -1.059525,0.904502 -2.495508,1.306217 -3.525883,2.243791 -0.900914,0.819773 -1.826689,1.739968 -2.243274,2.884578 -0.493672,1.356412 -0.317803,2.892506 -0.160714,4.327386 0.138193,1.26228 0.995276,2.4167 0.961699,3.68608 -0.03261,1.23276 -0.557103,2.42911 -1.121896,3.52536 -0.244737,0.47503 -0.8055,0.77158 -0.961698,1.28261 -0.312668,1.02295 0.212585,2.13657 0.160714,3.20498 -0.07071,1.4565 -0.848647,2.88398 -0.641305,4.32738 0.21751,1.51418 0.969951,2.97042 1.923397,4.16667 2.397556,3.00811 5.818106,5.10338 9.134843,7.05177 2.455473,1.44245 5.023783,3.03814 7.852752,3.36517 1.83229,0.21181 3.66838,-0.48153 5.44928,-0.9617 2.69245,-0.72594 5.1906,-2.05439 7.85275,-2.88458 1.63276,-0.50917 3.26474,-1.12883 4.96817,-1.28209 2.18725,-0.19679 4.47222,-0.16644 6.57066,0.4811 2.95055,0.91049 5.45059,2.92493 8.01346,4.64727 4.7517,3.19332 7.86536,10.50395 13.59039,10.50168 5.71917,-0.002 8.82263,-7.30968 13.56816,-10.50168 2.56204,-1.72331 5.06255,-3.73679 8.01295,-4.64727 2.0986,-0.64762 4.38376,-0.67791 6.57118,-0.4811 1.70343,0.15327 3.33541,0.77292 4.96817,1.28209 2.66215,0.83019 5.16031,2.15862 7.85275,2.88458 1.78073,0.48014 3.61663,1.17346 5.44876,0.9617 2.82913,-0.32699 5.39764,-1.92267 7.85327,-3.36517 3.31676,-1.94835 6.73728,-4.04366 9.13484,-7.05177 0.95345,-1.19625 1.70589,-2.65248 1.9234,-4.16667 0.20734,-1.4434 -0.57048,-2.87089 -0.64131,-4.32738 -0.052,-1.0684 0.47295,-2.18206 0.1602,-3.20498 -0.15624,-0.51102 -0.71696,-0.80758 -0.9617,-1.28261 -0.56479,-1.09625 -1.08928,-2.2926 -1.12189,-3.52536 -0.0336,-1.26938 0.82343,-2.42381 0.9617,-3.68608 0.15717,-1.43487 0.33346,-2.970978 -0.1602,-4.327386 -0.41662,-1.14471 -1.34275,-2.064784 -2.24379,-2.884578 -1.03043,-0.937517 -2.4664,-1.339251 -3.52589,-2.243791 -1.41022,-1.203973 -2.95712,-2.461485 -3.68556,-4.166671 -0.50541,-1.183115 -0.10648,-2.577726 -0.32091,-3.846277 -0.32178,-1.903637 -0.62239,-3.861581 -1.44229,-5.609476 -0.50372,-1.073856 -1.23305,-2.057843 -2.08359,-2.884579 -1.15807,-1.125663 -2.69915,-1.776154 -4.00648,-2.724381 -1.2023,-0.872052 -2.17867,-2.099065 -3.52588,-2.724382 -0.69368,-0.321975 -1.47923,-0.447903 -2.24327,-0.481107 -1.72115,-0.0748 -3.49401,0.0965 -5.12837,0.641304 -1.63442,0.544828 -3.26712,1.348193 -4.48758,2.564185 -2.5769,2.567467 -3.63824,6.300197 -5.44877,9.455237 -3.42995,5.97705 -5.05861,13.426116 -10.25725,17.949812 -0.86801,0.75532 -2.07783,1.51343 -3.20497,1.28209 -0.44409,-0.0911 -0.82703,-0.52882 -0.9617,-0.9617 -0.61319,-1.971001 0.50777,-4.119357 1.12189,-6.090067 2.561,-8.218292 7.50187,-15.518758 10.57714,-23.558769 1.38218,-3.613595 3.43292,-7.190442 3.52588,-11.05824 0.0399,-1.658181 -0.41963,-3.391175 -1.28209,-4.807975 -0.82586,-1.356684 -2.20709,-2.319875 -3.52589,-3.204972 -1.03162,-0.692356 -2.12832,-1.48504 -3.36517,-1.602487 -1.26409,-0.120034 -2.43023,1.14876 -3.68608,0.961182 -0.80654,-0.120467 -1.28785,-1.103733 -2.08359,-1.282092 -0.47201,-0.105797 -0.97592,0.0318 -1.44229,0.160197 -1.24474,0.3427 -2.29436,1.21546 -3.52588,1.603003 -1.39915,0.440295 -2.87306,0.995714 -4.32687,0.800984 -1.10013,-0.147356 -1.88935,-1.446012 -2.9993,-1.446423 -1.11166,-4.11e-4 -1.90311,1.299248 -3.00498,1.446423 -1.45388,0.194192 -2.92772,-0.360689 -4.32687,-0.800984 -1.23152,-0.387543 -2.2939,-1.216936 -3.52588,-1.603003 -0.35039,-0.109803 -0.71673,-0.183999 -1.08366,-0.197921 z"
         sodipodi:nodetypes="aaaaaaaaaaaaaaaaaaaaaaaaaaaaaaaaaaaaaaaaaaaaaaaaaaaaaaaaaaaaaaaaaaaaaaaaaaaaaaaaaaaaaa" /></g></g><g
     inkscape:label="STEMS"
     inkscape:groupmode="layer"
     id="layer1"><path
       id="path15"
       style="fill:none;stroke:#ff8800;stroke-width:0.365001;stroke-linecap:round;stroke-linejoin:round;stroke-dasharray:none;stroke-opacity:1;paint-order:fill markers stroke"
       d="m 148.63425,142.7985 c 0,0 -3.96139,-37.75831 -7.19676,-56.448988 -1.8159,-10.490483 -6.8453,-31.197302 -6.8453,-31.197302 m 14.04206,87.64629 c 0,0 -9.02421,-53.009889 -20.42743,-76.986498 -1.11117,-2.336372 -4.56327,-6.278267 -4.56327,-6.278267 m 24.9907,83.264765 c 0,0 -17.3572,-42.924871 -34.94957,-56.26633 -4.09747,-3.107384 -14.815081,-4.303394 -14.815081,-4.303394 M 148.63425,142.7985 c 0,0 -19.06105,-33.99479 -35.45364,-42.40662 -5.38216,-2.761854 -18.098908,-1.337395 -18.098908,-1.337395 M 148.63425,142.7985 c 0,0 -24.63007,-24.78878 -40.81278,-27.8041 -5.79014,-1.07888 -17.205679,4.0214 -17.205679,4.0214 m 58.102409,23.78059 c 0,0 1.76593,-37.94758 4.34976,-56.739417 1.46507,-10.655328 6.30821,-31.644097 6.30821,-31.644097 M 148.7182,142.79639 c 0,0 6.7016,-53.252577 16.5312,-77.916112 0.97368,-2.443063 4.12017,-6.728576 4.12017,-6.728576 M 148.7182,142.79639 c 0,0 16.78586,-42.16892 33.13628,-56.743812 3.93107,-3.504188 14.46485,-6.353087 14.46485,-6.353087 M 148.7182,142.79639 c 0,0 19.7713,-30.66675 35.12285,-39.1179 6.94429,-3.822881 23.44898,-3.960211 23.44898,-3.960211 M 148.7182,142.79639 c 0,0 21.92921,-24.61679 36.97537,-28.88925 6.41636,-1.82198 19.8894,2.19453 19.8894,2.19453"
       sodipodi:nodetypes="caccaccaccaccaccaccaccaccaccac" /></g></svg>
