<?xml version="1.0" encoding="UTF-8" standalone="no"?>
<!-- Created with Inkscape (http://www.inkscape.org/) -->

<svg
   version="1.1"
   id="svg1"
   width="408.33066"
   height="141.88268"
   viewBox="0 0 408.33066 141.88268"
   sodipodi:docname="Tikz_block.svg"
   inkscape:version="1.4.2 (ebf0e940, 2025-05-08)"
   xmlns:inkscape="http://www.inkscape.org/namespaces/inkscape"
   xmlns:sodipodi="http://sodipodi.sourceforge.net/DTD/sodipodi-0.dtd"
   xmlns="http://www.w3.org/2000/svg"
   xmlns:svg="http://www.w3.org/2000/svg">
  <defs
     id="defs1" />
  <sodipodi:namedview
     id="namedview1"
     pagecolor="#ffffff"
     bordercolor="#000000"
     borderopacity="0.25"
     inkscape:showpageshadow="2"
     inkscape:pageopacity="0.0"
     inkscape:pagecheckerboard="0"
     inkscape:deskcolor="#d1d1d1"
     inkscape:zoom="2.277566"
     inkscape:cx="204.16533"
     inkscape:cy="71.128566"
     inkscape:window-width="1800"
     inkscape:window-height="1101"
     inkscape:window-x="0"
     inkscape:window-y="40"
     inkscape:window-maximized="0"
     inkscape:current-layer="g1">
    <inkscape:page
       x="0"
       y="0"
       inkscape:label="1"
       id="page1"
       width="408.33066"
       height="141.88268"
       margin="0"
       bleed="0" />
  </sodipodi:namedview>
  <g
     id="g1"
     inkscape:groupmode="layer"
     inkscape:label="1">
    <path
       id="path1"
       d="m 42.71947,-14.94415 h 73.1427 v 29.88832 h -73.1427 z"
       style="fill:#e6e6ff;fill-opacity:1;fill-rule:nonzero;stroke:#000000;stroke-width:0.3985;stroke-linecap:butt;stroke-linejoin:miter;stroke-miterlimit:10;stroke-dasharray:none;stroke-opacity:1"
       transform="matrix(1.3333333,0,0,-1.3333333,0.26533333,22.404)" />
    <path
       id="path2"
       d="m 2.2619766,-3.152625 h 1.6875 c 1.1953125,0 2.2617187,-0.796875 2.2617187,-1.7929688 0,-0.984375 -0.984375,-1.8632812 -2.34375,-1.8632812 H 0.35182031 v 0.3164062 h 0.234375 c 0.77343749,0 0.78515629,0.1054688 0.78515629,0.46875 v 5.25000005 c 0,0.3515625 -0.011719,0.46875 -0.78515629,0.46875 h -0.234375 v 0.3046875 C 0.70338281,-0.0354375 1.4299453,-0.0354375 1.8166641,-0.0354375 c 0.375,0 1.125,0 1.4765625,0.03515625 v -0.3046875 H 3.0471328 c -0.7617187,0 -0.7851562,-0.1171875 -0.7851562,-0.46875 z m -0.035156,-0.2578125 v -2.6835938 c 0,-0.328125 0.023437,-0.3984375 0.4921875,-0.3984375 h 0.890625 c 1.5820313,0 1.5820313,1.0546875 1.5820313,1.546875 0,0.4570313 0,1.5351563 -1.5820313,1.5351563 z M 7.8811172,-0.762 c 0,0.45703125 -0.1171875,0.45703125 -0.7851563,0.45703125 v 0.3046875 C 7.4475234,-0.012 7.9514297,-0.0354375 8.2209609,-0.0354375 c 0.2578125,0 0.7851563,0.0234375 1.1132813,0.03515625 v -0.3046875 c -0.65625,0 -0.7734375,0 -0.7734375,-0.45703125 v -1.828125 c 0,-1.03125 0.7148437,-1.59375 1.3476562,-1.59375 0.6210941,0 0.7382811,0.5390625 0.7382811,1.1015625 V -0.762 c 0,0.45703125 -0.117187,0.45703125 -0.7734373,0.45703125 v 0.3046875 C 10.213148,-0.012 10.728773,-0.0354375 10.998305,-0.0354375 c 0.257812,0 0.773437,0.0234375 1.113281,0.03515625 v -0.3046875 c -0.515625,0 -0.773438,0 -0.785156,-0.3046875 V -2.5080938 c 0,-0.8554687 0,-1.171875 -0.304688,-1.5234375 -0.140625,-0.1757812 -0.46875,-0.375 -1.0429686,-0.375 -0.84375,0 -1.2773437,0.5976563 -1.4414062,0.984375 V -6.9143438 L 7.0959609,-6.808875 v 0.3164062 c 0.703125,0 0.7851563,0.070312 0.7851563,0.5507813 z m 7.7519528,0 c 0.03516,0.3984375 0.304688,0.8203125 0.773438,0.8203125 0.210937,0 0.820312,-0.140625 0.820312,-0.94921875 V -1.4416875 h -0.246093 v 0.55078125 c 0,0.5859375 -0.246094,0.64453125 -0.363282,0.64453125 -0.328125,0 -0.363281,-0.45703125 -0.363281,-0.50390625 V -2.7424688 c 0,-0.4101562 0,-0.8085937 -0.363281,-1.171875 -0.386719,-0.3867187 -0.878906,-0.5507812 -1.359375,-0.5507812 -0.820313,0 -1.511719,0.46875 -1.511719,1.125 0,0.3046875 0.199219,0.46875 0.457031,0.46875 0.28125,0 0.46875,-0.1992188 0.46875,-0.4570313 0,-0.1171875 -0.05859,-0.4453125 -0.515625,-0.4570312 0.269532,-0.3515625 0.761719,-0.4570313 1.078125,-0.4570313 0.492188,0 1.054688,0.3867188 1.054688,1.2773438 v 0.3632812 c -0.503906,0.035156 -1.207031,0.058594 -1.828125,0.3632813 -0.75,0.3398437 -0.996094,0.8554687 -0.996094,1.2890625 0,0.80859375 0.960938,1.0546875 1.59375,1.0546875 0.65625,0 1.113281,-0.3984375 1.300781,-0.8671875 z m -0.07031,-1.6289063 v 0.9960938 c 0,0.94921875 -0.714844,1.2890625 -1.160156,1.2890625 -0.492188,0 -0.902344,-0.3515625 -0.902344,-0.85546875 0,-0.53906255 0.421875,-1.37109375 2.0625,-1.42968755 z m 3.808594,0.4570313 c 0.222656,0.035156 1.03125,0.1992187 1.03125,0.9140625 0,0.515625 -0.351563,0.9140625 -1.125,0.9140625 -0.832032,0 -1.195313,-0.57421875 -1.382813,-1.4179688 C 17.859633,-1.652625 17.859633,-1.6995 17.754164,-1.6995 c -0.128906,0 -0.128906,0.070312 -0.128906,0.2578125 v 1.3125 c 0,0.1640625 0,0.234375 0.105469,0.234375 0.05859,0 0.07031,0 0.257812,-0.19921875 0.01172,-0.01171875 0.01172,-0.03515625 0.199219,-0.22265625 0.433594,0.421875 0.878906,0.421875 1.089844,0.421875 1.148437,0 1.605468,-0.66796875 1.605468,-1.3828125 0,-0.5273438 -0.292968,-0.8203125 -0.421875,-0.9492188 -0.328125,-0.3164062 -0.714843,-0.3984375 -1.136718,-0.46875 -0.550782,-0.1171875 -1.21875,-0.2460937 -1.21875,-0.8203125 0,-0.3515625 0.257812,-0.7617187 1.113281,-0.7617187 1.101562,0 1.148437,0.9023437 1.171875,1.2070312 0,0.09375 0.09375,0.09375 0.117187,0.09375 0.128907,0 0.128907,-0.046875 0.128907,-0.2460937 v -0.9960938 c 0,-0.1757812 0,-0.2460937 -0.117188,-0.2460937 -0.04687,0 -0.07031,0 -0.199219,0.1171875 -0.02344,0.046875 -0.128906,0.1289062 -0.164062,0.1640625 -0.375,-0.28125 -0.785156,-0.28125 -0.9375,-0.28125 -1.21875,0 -1.59375,0.6679687 -1.59375,1.2304687 0,0.3398438 0.164062,0.6210938 0.433594,0.84375 0.316406,0.2578125 0.597656,0.3164063 1.3125,0.4570313 z m 2.967773,-0.5742188 c 0.05859,-1.4882812 0.902344,-1.734375 1.242188,-1.734375 1.019531,0 1.125,1.3476563 1.125,1.734375 z m -0.01172,0.2109375 h 2.789063 c 0.210937,0 0.246094,0 0.246094,-0.2109375 0,-0.984375 -0.539063,-1.9570312 -1.78125,-1.9570312 -1.160157,0 -2.074219,1.03125 -2.074219,2.2734375 0,1.3359375 1.042969,2.296875 2.191406,2.296875 1.21875,0 1.664063,-1.1015625 1.664063,-1.2890625 0,-0.1054688 -0.08203,-0.1171875 -0.128907,-0.1171875 -0.09375,0 -0.117187,0.058594 -0.128906,0.140625 -0.351562,1.01953125 -1.253906,1.01953125 -1.347656,1.01953125 -0.503906,0 -0.902344,-0.29296875 -1.125,-0.66796875 -0.304688,-0.4804688 -0.304688,-1.1367188 -0.304688,-1.4882813 z M 29.3235,-6.808875 v 0.3164062 h 0.234375 c 0.773438,0 0.785156,0.1054688 0.785156,0.46875 v 5.25000005 c 0,0.3515625 -0.01172,0.46875 -0.785156,0.46875 H 29.3235 v 0.3046875 h 3.644531 c 1.675782,0 3.046875,-1.47656255 3.046875,-3.35156255 0,-1.8867187 -1.347656,-3.4570312 -3.046875,-3.4570312 z m 2.367188,6.50390625 c -0.46875,0 -0.492188,-0.0703125 -0.492188,-0.3984375 V -6.0940313 c 0,-0.328125 0.02344,-0.3984375 0.492188,-0.3984375 h 0.996093 c 0.621094,0 1.300782,0.2109375 1.816407,0.9257813 0.421875,0.5859375 0.515625,1.4414062 0.515625,2.2148437 0,1.1132813 -0.1875,1.7109375 -0.550782,2.1914063 -0.199218,0.26953125 -0.761718,0.85546875 -1.769531,0.85546875 z m 6.002929,-2.20312505 c 0.05859,-1.4882812 0.902344,-1.734375 1.242188,-1.734375 1.019531,0 1.125,1.3476563 1.125,1.734375 z m -0.01172,0.2109375 h 2.789063 c 0.210937,0 0.246094,0 0.246094,-0.2109375 0,-0.984375 -0.539063,-1.9570312 -1.78125,-1.9570312 -1.160157,0 -2.074219,1.03125 -2.074219,2.2734375 0,1.3359375 1.042969,2.296875 2.191406,2.296875 1.21875,0 1.664063,-1.1015625 1.664063,-1.2890625 0,-0.1054688 -0.08203,-0.1171875 -0.128907,-0.1171875 -0.09375,0 -0.117187,0.058594 -0.128906,0.140625 -0.351562,1.01953125 -1.253906,1.01953125 -1.347656,1.01953125 -0.503906,0 -0.902344,-0.29296875 -1.125,-0.66796875 -0.304688,-0.4804688 -0.304688,-1.1367188 -0.304688,-1.4882813 z m 5.050782,-1.6875 h 1.429687 V -4.2893438 H 42.73268 v -1.8398437 h -0.246094 c -0.01172,0.8203125 -0.316406,1.8867187 -1.289063,1.921875 v 0.2226562 h 0.84375 V -1.23075 c 0,1.21875 0.925782,1.3359375 1.289063,1.3359375 0.703125,0 0.984375,-0.703125 0.984375,-1.3359375 v -0.5742188 h -0.246094 v 0.5507813 c 0,0.73828125 -0.304687,1.11328125 -0.667969,1.11328125 -0.667968,0 -0.667968,-0.90234375 -0.667968,-1.07812505 z m 3.263672,1.4765625 c 0.05859,-1.4882812 0.902343,-1.734375 1.242187,-1.734375 1.019531,0 1.125,1.3476563 1.125,1.734375 z m -0.01172,0.2109375 h 2.789062 c 0.210938,0 0.246094,0 0.246094,-0.2109375 0,-0.984375 -0.539062,-1.9570312 -1.78125,-1.9570312 -1.160156,0 -2.074219,1.03125 -2.074219,2.2734375 0,1.3359375 1.042969,2.296875 2.191407,2.296875 1.21875,0 1.664062,-1.1015625 1.664062,-1.2890625 0,-0.1054688 -0.08203,-0.1171875 -0.128906,-0.1171875 -0.09375,0 -0.117188,0.058594 -0.128906,0.140625 -0.351563,1.01953125 -1.253907,1.01953125 -1.347657,1.01953125 -0.503906,0 -0.902343,-0.29296875 -1.125,-0.66796875 -0.304687,-0.4804688 -0.304687,-1.1367188 -0.304687,-1.4882813 z m 4.485351,0.1289063 c 0,-1.6289063 0.820313,-2.0507813 1.347657,-2.0507813 0.09375,0 0.714843,0.011719 1.066406,0.375 -0.410156,0.023437 -0.46875,0.328125 -0.46875,0.4570313 0,0.2578125 0.1875,0.4570312 0.457031,0.4570312 0.257813,0 0.457031,-0.1640625 0.457031,-0.46875 0,-0.6796875 -0.75,-1.0664062 -1.523437,-1.0664062 -1.242188,0 -2.15625,1.078125 -2.15625,2.3085937 0,1.2773438 0.984375,2.2617188 2.144531,2.2617188 1.335938,0 1.652344,-1.1953125 1.652344,-1.2890625 0,-0.1054688 -0.105469,-0.1054688 -0.128906,-0.1054688 -0.09375,0 -0.117188,0.046875 -0.128907,0.1054688 -0.292968,0.92578125 -0.9375,1.04296875 -1.3125,1.04296875 -0.527343,0 -1.40625,-0.421875 -1.40625,-2.02734375 z m 4.992188,-1.8164063 h 1.429687 V -4.2893438 H 55.46217 v -1.8398437 h -0.246094 c -0.01172,0.8203125 -0.316406,1.8867187 -1.289062,1.921875 v 0.2226562 h 0.84375 V -1.23075 c 0,1.21875 0.925781,1.3359375 1.289062,1.3359375 0.703125,0 0.984375,-0.703125 0.984375,-1.3359375 v -0.5742188 h -0.246094 v 0.5507813 c 0,0.73828125 -0.304687,1.11328125 -0.667968,1.11328125 -0.667969,0 -0.667969,-0.90234375 -0.667969,-1.07812505 z m 6.837891,1.8515625 c 0,-1.2773437 -0.996094,-2.3320312 -2.191407,-2.3320312 -1.253906,0 -2.214843,1.0898437 -2.214843,2.3320312 0,1.28906255 1.03125,2.2382813 2.203125,2.2382813 1.207031,0 2.203125,-0.97265625 2.203125,-2.2382813 z m -2.191407,1.99218755 c -0.433593,0 -0.867187,-0.2109375 -1.136718,-0.66796875 -0.257813,-0.4335938 -0.257813,-1.0429688 -0.257813,-1.40625 0,-0.3867188 0,-0.9257813 0.246094,-1.359375 0.269531,-0.4570313 0.738281,-0.6679688 1.136719,-0.6679688 0.433593,0 0.867187,0.2226563 1.125,0.6445313 0.257812,0.4335937 0.257812,1.0078125 0.257812,1.3828125 0,0.3632812 0,0.9023437 -0.222656,1.3359375 -0.222656,0.4453125 -0.65625,0.73828125 -1.148438,0.73828125 z m 4.148438,-3.16406255 v -1.1015625 l -1.382813,0.1171875 v 0.3046875 c 0.691407,0 0.773438,0.070312 0.773438,0.5625 V -0.762 c 0,0.45703125 -0.105469,0.45703125 -0.773438,0.45703125 v 0.3046875 C 63.261,-0.012 63.72975,-0.0354375 64.011,-0.0354375 c 0.398437,0 0.867187,0 1.265625,0.03515625 v -0.3046875 h -0.210938 c -0.738281,0 -0.761718,-0.1171875 -0.761718,-0.46875 V -2.308875 c 0,-0.984375 0.421875,-1.875 1.183593,-1.875 0.05859,0 0.08203,0 0.105469,0.011719 -0.03516,0.011719 -0.234375,0.1289063 -0.234375,0.3867188 0,0.28125 0.210938,0.4335937 0.433594,0.4335937 0.175781,0 0.421875,-0.1289062 0.421875,-0.4453125 0,-0.3164062 -0.304688,-0.609375 -0.726563,-0.609375 -0.738281,0 -1.089843,0.6679688 -1.230468,1.1015625 z m 0,0"
       style="fill:#000000;fill-opacity:1;fill-rule:nonzero;stroke:none"
       aria-label="PhaseDetector"
       transform="matrix(1.3333333,0,0,1.3333333,61.652,27.016)" />
    <path
       id="path3"
       d="m 187.12773,-14.94415 h 56.20602 v 29.88832 h -56.20602 z"
       style="fill:#e6e6ff;fill-opacity:1;fill-rule:nonzero;stroke:#000000;stroke-width:0.3985;stroke-linecap:butt;stroke-linejoin:miter;stroke-miterlimit:10;stroke-dasharray:none;stroke-opacity:1"
       transform="matrix(1.3333333,0,0,-1.3333333,0.26533333,22.404)" />
    <path
       id="path4"
       d="M 5.7993359,-2.5654844 H 5.5415234 C 5.4360547,-1.5576719 5.2954297,-0.30376563 3.5493359,-0.30376563 H 2.7290234 c -0.46875,0 -0.4921875,-0.0703125 -0.4921875,-0.3984375 V -6.0107969 c 0,-0.3398437 0,-0.4804687 0.9492188,-0.4804687 h 0.328125 v -0.3164063 c -0.3632813,0.035156 -1.265625,0.035156 -1.6757813,0.035156 -0.3867187,0 -1.16015621,0 -1.51171871,-0.035156 v 0.3164063 h 0.234375 c 0.77343751,0 0.79687501,0.1054687 0.79687501,0.46875 v 5.24999997 c 0,0.3515625 -0.023437,0.46875 -0.79687501,0.46875 h -0.234375 V 9.21875e-4 H 5.5180859 Z m 5.1152341,0.4335938 c 0,-1.2773438 -0.9960934,-2.3320313 -2.1914059,-2.3320313 -1.2539063,0 -2.2148438,1.0898438 -2.2148438,2.3320313 0,1.28906247 1.03125,2.23828122 2.203125,2.23828122 1.2070313,0 2.2031247,-0.97265625 2.2031247,-2.23828122 z m -2.1914059,1.99218747 c -0.4335938,0 -0.8671875,-0.2109375 -1.1367188,-0.66796875 C 7.3286328,-1.2412656 7.3286328,-1.8506406 7.3286328,-2.2139219 c 0,-0.3867187 0,-0.9257812 0.2460938,-1.359375 0.2695312,-0.4570312 0.7382812,-0.6679687 1.1367187,-0.6679687 0.4335938,0 0.8671875,0.2226562 1.125,0.6445312 0.2578127,0.4335938 0.2578127,1.0078125 0.2578127,1.3828125 0,0.3632813 0,0.9023438 -0.2226564,1.33593752 -0.2226563,0.4453125 -0.65625,0.73828125 -1.1484375,0.73828125 z M 16.173359,-2.1318906 c 0,-1.2773438 -0.996093,-2.3320313 -2.191406,-2.3320313 -1.253906,0 -2.214844,1.0898438 -2.214844,2.3320313 0,1.28906247 1.03125,2.23828122 2.203125,2.23828122 1.207032,0 2.203125,-0.97265625 2.203125,-2.23828122 z m -2.191406,1.99218747 c -0.433594,0 -0.867187,-0.2109375 -1.136719,-0.66796875 -0.257812,-0.43359372 -0.257812,-1.04296872 -0.257812,-1.40625002 0,-0.3867187 0,-0.9257812 0.246094,-1.359375 0.269531,-0.4570312 0.738281,-0.6679687 1.136718,-0.6679687 0.433594,0 0.867188,0.2226562 1.125,0.6445312 0.257813,0.4335938 0.257813,1.0078125 0.257813,1.3828125 0,0.3632813 0,0.9023438 -0.222656,1.33593752 -0.222657,0.4453125 -0.65625,0.73828125 -1.148438,0.73828125 z m 4.198242,-3.60937497 v -0.65625 l -1.429687,0.1171875 v 0.3046875 c 0.703125,0 0.773437,0.058594 0.773437,0.4921875 v 4.6640625 c 0,0.4570312 -0.105468,0.4570312 -0.773437,0.4570312 v 0.3046875 c 0.339844,-0.011719 0.855469,-0.035156 1.113281,-0.035156 0.269531,0 0.773438,0.023437 1.125,0.035156 V 1.6298281 c -0.667969,0 -0.773437,0 -0.773437,-0.4570312 v -1.75781253 c 0.04687,0.15234375 0.46875,0.69140625 1.21875,0.69140625 1.183593,0 2.226562,-0.97265625 2.226562,-2.26171872 0,-1.265625 -0.972656,-2.25 -2.085937,-2.25 -0.773438,0 -1.195313,0.4453125 -1.394532,0.65625 z m 0.03516,2.6132812 v -2.2148437 c 0.28125,-0.515625 0.773437,-0.796875 1.277343,-0.796875 0.726563,0 1.335938,0.8671875 1.335938,1.9921875 0,1.20703122 -0.691406,2.05078122 -1.429688,2.05078122 -0.398437,0 -0.773437,-0.19921875 -1.042968,-0.609375 -0.140625,-0.2109375 -0.140625,-0.22265625 -0.140625,-0.42187502 z m 12.905273,-5.6367187 h -5.472656 v 0.3046875 h 0.234375 c 0.773437,0 0.796875,0.1171875 0.796875,0.46875 v 5.22656247 c 0,0.3515625 -0.02344,0.46875 -0.796875,0.46875 H 25.647969 V 9.21875e-4 c 0.351562,-0.035156255 1.125,-0.035156255 1.511719,-0.035156255 0.410156,0 1.3125,0 1.675781,0.035156255 V -0.30376563 h -0.328125 c -0.949219,0 -0.949219,-0.12890625 -0.949219,-0.48046875 V -3.2334531 h 0.855469 c 0.960937,0 1.054687,0.3164062 1.054687,1.1601562 h 0.257813 v -2.6367187 h -0.257813 c 0,0.8320312 -0.09375,1.1601562 -1.054687,1.1601562 h -0.855469 v -2.5195312 c 0,-0.328125 0.02344,-0.3984375 0.492188,-0.3984375 h 1.195312 c 1.488281,0 1.746094,0.5625 1.898438,1.9335937 h 0.257812 z m 2.460938,2.3671875 -1.394532,0.1171875 v 0.3046875 c 0.65625,0 0.738282,0.058594 0.738282,0.5507812 v 2.67187502 c 0,0.45703125 -0.105469,0.45703125 -0.773438,0.45703125 V 9.21875e-4 c 0.316406,-0.011718755 0.855469,-0.035156255 1.101563,-0.035156255 0.339843,0 0.691406,0.0234375 1.03125,0.035156255 V -0.30376563 c -0.65625,0 -0.703125,-0.0585938 -0.703125,-0.4453125 z m 0.04687,-1.734375 c 0,-0.3164063 -0.246094,-0.5273438 -0.527344,-0.5273438 -0.316406,0 -0.527344,0.2695313 -0.527344,0.5273438 0,0.2695312 0.210938,0.5273437 0.527344,0.5273437 0.28125,0 0.527344,-0.1992187 0.527344,-0.5273437 z m 2.721679,-0.7734375 -1.429687,0.1054687 v 0.3164063 c 0.703125,0 0.773437,0.070312 0.773437,0.5507812 v 5.17968752 c 0,0.45703125 -0.105469,0.45703125 -0.773437,0.45703125 V 9.21875e-4 c 0.328125,-0.011718755 0.855468,-0.035156255 1.101562,-0.035156255 0.257813,0 0.738281,0.0234375 1.113281,0.035156255 V -0.30376563 c -0.667968,0 -0.785156,0 -0.785156,-0.45703125 z m 2.733399,2.9296875 h 1.429687 V -4.2881406 H 39.083514 V -6.1279844 H 38.83742 c -0.01172,0.8203125 -0.316406,1.8867188 -1.289063,1.921875 v 0.2226563 h 0.84375 v 2.7539062 c 0,1.21875002 0.925782,1.33593752 1.289063,1.33593752 0.703125,0 0.984375,-0.703125 0.984375,-1.33593752 v -0.5742187 h -0.246094 v 0.5507812 c 0,0.73828127 -0.304687,1.11328127 -0.667969,1.11328127 -0.667968,0 -0.667968,-0.90234377 -0.667968,-1.07812497 z m 3.263672,1.4765625 c 0.05859,-1.4882813 0.902343,-1.734375 1.242187,-1.734375 1.019531,0 1.125,1.3476562 1.125,1.734375 z m -0.01172,0.2109375 h 2.789062 c 0.210938,0 0.246094,0 0.246094,-0.2109375 0,-0.984375 -0.539062,-1.9570313 -1.78125,-1.9570313 -1.160156,0 -2.074219,1.03125 -2.074219,2.2734375 0,1.33593752 1.042969,2.29687502 2.191407,2.29687502 1.21875,0 1.664062,-1.1015625 1.664062,-1.28906252 0,-0.1054687 -0.08203,-0.1171875 -0.128906,-0.1171875 -0.09375,0 -0.117188,0.058594 -0.128906,0.140625 -0.351563,1.01953127 -1.253907,1.01953127 -1.347657,1.01953127 -0.503906,0 -0.902343,-0.29296875 -1.125,-0.66796875 C 42.335469,-1.2881406 42.335469,-1.9443906 42.335469,-2.2959531 Z m 4.989258,-1.0078125 v -1.1015625 l -1.382813,0.1171875 v 0.3046875 c 0.691406,0 0.773438,0.070312 0.773438,0.5625 v 2.66015622 c 0,0.45703125 -0.105469,0.45703125 -0.773438,0.45703125 V 9.21875e-4 C 46.32863,-0.01079688 46.79738,-0.03423438 47.07863,-0.03423438 c 0.398437,0 0.867187,0 1.265625,0.035156255 V -0.30376563 H 48.13332 c -0.738281,0 -0.761718,-0.1171875 -0.761718,-0.46875 V -2.3076719 c 0,-0.984375 0.421875,-1.875 1.183593,-1.875 0.05859,0 0.08203,0 0.105469,0.011719 -0.03516,0.011719 -0.234375,0.1289062 -0.234375,0.3867187 0,0.28125 0.210938,0.4335938 0.433594,0.4335938 0.175781,0 0.421875,-0.1289063 0.421875,-0.4453125 0,-0.3164063 -0.304688,-0.609375 -0.726563,-0.609375 -0.738281,0 -1.089843,0.6679687 -1.230468,1.1015625 z m 0,0"
       style="fill:#000000;fill-opacity:1;fill-rule:nonzero;stroke:none"
       aria-label="LoopFilter"
       transform="matrix(1.3333333,0,0,1.3333333,254.19333,25.725333)" />
    <path
       id="path5"
       d="M 195.30518,-87.75122 H 235.1563 V -57.8629 H 195.30518 Z"
       style="fill:#e6e6ff;fill-opacity:1;fill-rule:nonzero;stroke:#000000;stroke-width:0.3985;stroke-linecap:butt;stroke-linejoin:miter;stroke-miterlimit:10;stroke-dasharray:none;stroke-opacity:1"
       transform="matrix(1.3333333,0,0,-1.3333333,0.26533333,22.404)" />
    <path
       id="path6"
       d="m 6.1869219,-5.8255 c 0.140625,-0.375 0.4101562,-0.65625 1.0898437,-0.6679688 V -6.809875 c -0.3164062,0.023437 -0.7148437,0.035156 -0.9726562,0.035156 -0.2929688,0 -0.8789063,-0.023437 -1.1367188,-0.035156 v 0.3164062 c 0.515625,0.011719 0.7265625,0.2695313 0.7265625,0.4921875 0,0.082031 -0.023437,0.140625 -0.046875,0.1992188 L 4.0189531,-0.997375 2.1205156,-6.0247188 c -0.058594,-0.140625 -0.058594,-0.1640625 -0.058594,-0.1875 0,-0.28125 0.5625,-0.28125 0.8203125,-0.28125 V -6.809875 c -0.3632813,0.035156 -1.0546875,0.035156 -1.4296875,0.035156 -0.48046878,0 -0.90234378,-0.023437 -1.26562503,-0.035156 v 0.3164062 c 0.64453125,0 0.84375003,0 0.97265623,0.375 l 2.3203125,6.11718755 c 0.070312,0.1875 0.1171875,0.22265625 0.2460938,0.22265625 0.1640625,0 0.1875,-0.0585938 0.234375,-0.1875 z m 1.5673828,2.4140625 c 0,2.0625 1.6054687,3.6328125 3.4570313,3.6328125 1.628906,0 2.601562,-1.3828125 2.601562,-2.5429688 0,-0.1054687 0,-0.1757812 -0.128906,-0.1757812 -0.105469,0 -0.105469,0.070312 -0.117187,0.1640625 -0.08203,1.4296875 -1.148438,2.23828125 -2.226563,2.23828125 -0.609375,0 -2.5664061,-0.33984375 -2.5664061,-3.30468755 0,-2.9765625 1.9453121,-3.3164062 2.5546871,-3.3164062 1.078125,0 1.96875,0.9023437 2.167969,2.3671875 0.02344,0.1289062 0.02344,0.1640625 0.164063,0.1640625 0.152343,0 0.152343,-0.035156 0.152343,-0.234375 v -2.3671875 c 0,-0.1640625 0,-0.234375 -0.105468,-0.234375 -0.03516,0 -0.08203,0 -0.164063,0.1171875 l -0.492187,0.7382812 c -0.375,-0.3632812 -0.878907,-0.8554687 -1.839844,-0.8554687 -1.8632813,0 -3.4570313,1.5820312 -3.4570313,3.609375 z m 13.8164063,0.035156 c 0,-2.0390625 -1.5,-3.6445312 -3.316406,-3.6445312 -1.78125,0 -3.304688,1.59375 -3.304688,3.6445312 0,2.0390625 1.535156,3.5976563 3.304688,3.5976563 1.816406,0 3.316406,-1.5820313 3.316406,-3.5976563 z m -3.304688,3.3398438 c -0.960937,0 -2.296875,-0.87890625 -2.296875,-3.4804688 0,-2.578125 1.453125,-3.2578125 2.285157,-3.2578125 0.867187,0 2.285156,0.703125 2.285156,3.2578125 0,2.6367188 -1.359375,3.4804688 -2.273438,3.4804688 z m 0,0"
       style="fill:#000000;fill-opacity:1;fill-rule:nonzero;stroke:none"
       aria-label="VCO"
       transform="matrix(1.3333333,0,0,1.3333333,272.47733,124.01733)" />
    <path
       id="path7"
       d="M 0,0 H 40.12918"
       style="fill:none;stroke:#000000;stroke-width:0.3985;stroke-linecap:butt;stroke-linejoin:miter;stroke-miterlimit:10;stroke-dasharray:none;stroke-opacity:1"
       transform="matrix(1.3333333,0,0,-1.3333333,0.26533333,22.404)" />
    <path
       id="path8"
       d="m 2.39102,0 c -0.99626,0.19925 -2.78952,0.59775 -3.98503,1.49438 0.99626,-1.09588 0.99626,-1.89288 0,-2.98876 C -0.3985,-0.59775 1.39476,-0.19925 2.39102,0 Z"
       style="fill:#000000;fill-opacity:1;fill-rule:nonzero;stroke:none"
       transform="matrix(1.3333333,0,0,-1.3333333,53.770907,22.404)" />
    <g
       id="g8"
       aria-label="θ&#10;in&#10;(t)"
       transform="matrix(1.3333333,0,0,1.3333333,12.436,14.390667)">
      <path
         id="path9"
         d="m 4.5362813,-4.9805 c 0,-0.65625 -0.1875,-2.0390625 -1.1953125,-2.0390625 -1.3828125,0 -2.9179688,2.8007812 -2.9179688,5.0859375 0,0.9375 0.28125,2.0390625 1.1953125,2.0390625 1.40625,0 2.9179688,-2.859375 2.9179688,-5.0859375 z M 1.4776875,-3.621125 C 1.64175,-4.2539375 1.8409688,-5.0508125 2.2394063,-5.7539375 2.5089375,-6.246125 2.8839375,-6.808625 3.32925,-6.808625 c 0.4921875,0 0.5507813,0.6445312 0.5507813,1.2070312 0,0.4921875 -0.082031,0.9960938 -0.328125,1.9804688 z M 3.469875,-3.293 C 3.3526875,-2.8359688 3.1534688,-1.9922188 2.76675,-1.277375 2.4269063,-0.5976875 2.0401875,-0.1055 1.6183125,-0.1055 c -0.328125,0 -0.5390625,-0.29296875 -0.5390625,-1.21875 0,-0.421875 0.058594,-0.9960938 0.3164063,-1.96875 z m 0,0"
         style="fill:#000000;fill-opacity:1;fill-rule:nonzero;stroke:none" />
      <path
         id="path10"
         d="m 6.938625,-2.8652656 c 0,-0.1054688 -0.082031,-0.2578125 -0.28125,-0.2578125 -0.1875,0 -0.3867187,0.1757812 -0.3867187,0.375 0,0.1171875 0.082031,0.2695312 0.2695312,0.2695312 0.2109375,0 0.3984375,-0.1992187 0.3984375,-0.3867187 z M 5.5089375,0.67379687 c -0.023437,0.09375 -0.058594,0.17578125 -0.058594,0.29296875 0,0.32812498 0.28125,0.59765628 0.6679687,0.59765628 0.6914063,0 0.9960938,-0.96093753 0.9960938,-1.06640628 0,-0.09375 -0.082031,-0.09375 -0.1054688,-0.09375 -0.1054687,0 -0.1054687,0.046875 -0.140625,0.1171875 C 6.7159688,1.0839531 6.4112813,1.3652031 6.1300313,1.3652031 c -0.140625,0 -0.1757813,-0.082031 -0.1757813,-0.2460937 0,-0.15234378 0.058594,-0.29296878 0.1171875,-0.44531253 0.070312,-0.1875 0.140625,-0.375 0.2226563,-0.55078125 0.058594,-0.1640625 0.3164062,-0.80859375 0.3398437,-0.890625 0.023437,-0.0703125 0.046875,-0.15234375 0.046875,-0.22265625 0,-0.32812497 -0.28125,-0.58593747 -0.6679687,-0.58593747 -0.6914063,0 -1.0078125,0.94921872 -1.0078125,1.06640622 0,0.0820313 0.09375,0.0820313 0.1171875,0.0820313 0.09375,0 0.1054687,-0.0351563 0.1289062,-0.10546875 0.1757813,-0.59765627 0.4804688,-0.85546877 0.7382813,-0.85546877 0.1171875,0 0.1757812,0.058594 0.1757812,0.2460938 0,0.16406247 -0.035156,0.26953122 -0.2109375,0.70312497 z M 8.3507344,1.0605156 c -0.035156,0.082031 -0.070312,0.2578125 -0.070312,0.28125 0,0.1523438 0.1171875,0.2226563 0.234375,0.2226563 0.1289062,0 0.234375,-0.09375 0.2695312,-0.1523438 0.035156,-0.058594 0.09375,-0.2929687 0.1289063,-0.43359373 0.035156,-0.12890625 0.1054687,-0.45703125 0.1523437,-0.6328125 0.035156,-0.15234375 0.082031,-0.3046875 0.1171875,-0.45703125 0.082031,-0.29296875 0.09375,-0.3515625 0.2929688,-0.6328125 0.1992187,-0.28125002 0.5273441,-0.64453122 1.0429691,-0.64453122 0.410156,0 0.410156,0.3632812 0.410156,0.49218747 0,0.421875 -0.292968,1.1953125 -0.410156,1.48828125 -0.07031,0.1875 -0.105469,0.2578125 -0.105469,0.375 0,0.36328128 0.304688,0.59765628 0.667969,0.59765628 0.691406,0 1.007813,-0.96093753 1.007813,-1.06640628 0,-0.09375 -0.09375,-0.09375 -0.117188,-0.09375 -0.09375,0 -0.105469,0.046875 -0.128906,0.1171875 -0.164063,0.56249998 -0.46875,0.84374998 -0.738281,0.84374998 -0.152344,0 -0.175782,-0.09375 -0.175782,-0.2460937 0,-0.15234378 0.03516,-0.24609378 0.152343,-0.56250003 0.09375,-0.2109375 0.375,-0.94921875 0.375,-1.34765625 0,-0.66796872 -0.539061,-0.78515622 -0.902343,-0.78515622 -0.5859376,0 -0.9726564,0.3515625 -1.1835939,0.63281247 -0.046875,-0.48046877 -0.4570312,-0.63281247 -0.75,-0.63281247 -0.2929687,0 -0.4570312,0.2109375 -0.5507812,0.375 -0.1523438,0.25781247 -0.2460938,0.65624997 -0.2460938,0.69140622 0,0.0820313 0.09375,0.0820313 0.1171875,0.0820313 0.09375,0 0.1054688,-0.0117188 0.1523438,-0.19921875 0.1054687,-0.42187497 0.234375,-0.76171877 0.515625,-0.76171877 0.1757812,0 0.2226562,0.1523438 0.2226562,0.3398438 0,0.14062497 -0.058594,0.39843747 -0.1054687,0.58593747 -0.046875,0.1875 -0.1171875,0.46875 -0.1523438,0.62109375 z m 0,0"
         style="fill:#000000;fill-opacity:1;fill-rule:nonzero;stroke:none" />
      <path
         id="path11"
         d="m 16.211086,2.3905937 c 0,-0.035156 0,-0.046875 -0.164063,-0.2226562 -1.242187,-1.25390625 -1.570312,-3.12890625 -1.570312,-4.6640625 0,-1.7226563 0.386719,-3.4570313 1.605469,-4.7109375 0.128906,-0.1171875 0.128906,-0.1289063 0.128906,-0.1640625 0,-0.070312 -0.03516,-0.1054688 -0.09375,-0.1054688 -0.105469,0 -0.996094,0.6796875 -1.582031,1.9453125 -0.515625,1.1015625 -0.632813,2.203125 -0.632813,3.0351563 0,0.7851562 0.117188,1.9921875 0.65625,3.1171875 0.597656,1.21875 1.453125,1.875 1.558594,1.875 0.05859,0 0.09375,-0.035156 0.09375,-0.1054688 z m 0,0"
         style="fill:#000000;fill-opacity:1;fill-rule:nonzero;stroke:none" />
      <path
         id="path12"
         d="m 18.841945,-3.9844063 h 0.9375 c 0.199219,0 0.304688,0 0.304688,-0.1992187 0,-0.1054688 -0.105469,-0.1054688 -0.28125,-0.1054688 h -0.878906 c 0.363281,-1.4179687 0.410156,-1.6171875 0.410156,-1.6757812 0,-0.1757813 -0.117188,-0.2695313 -0.292969,-0.2695313 -0.02344,0 -0.304687,0.011719 -0.398437,0.3515625 l -0.386719,1.59375 h -0.9375 c -0.199219,0 -0.292969,0 -0.292969,0.1875 0,0.1171875 0.07031,0.1171875 0.269531,0.1171875 h 0.878907 c -0.714844,2.8242188 -0.75,3.00000005 -0.75,3.1757813 0,0.5390625 0.375,0.9140625 0.914062,0.9140625 1.007813,0 1.582031,-1.453125 1.582031,-1.5351563 0,-0.09375 -0.08203,-0.09375 -0.117187,-0.09375 -0.09375,0 -0.105469,0.023437 -0.152344,0.140625 -0.433594,1.03125005 -0.960937,1.2773438 -1.300781,1.2773438 -0.199219,0 -0.304688,-0.12890625 -0.304688,-0.45703125 0,-0.24609375 0.02344,-0.31640625 0.05859,-0.48046875 z m 0,0"
         style="fill:#000000;fill-opacity:1;fill-rule:nonzero;stroke:none" />
      <path
         id="path13"
         d="m 23.271633,-2.496125 c 0,-0.7734375 -0.117188,-1.9804688 -0.65625,-3.1054688 -0.597656,-1.21875 -1.464844,-1.875 -1.558594,-1.875 -0.05859,0 -0.105469,0.046875 -0.105469,0.1054688 0,0.035156 0,0.046875 0.199219,0.234375 0.972656,0.984375 1.535156,2.5664062 1.535156,4.640625 0,1.7109375 -0.363281,3.45703125 -1.59375,4.7226562 -0.140625,0.1171875 -0.140625,0.1289063 -0.140625,0.1640625 0,0.058594 0.04687,0.1054688 0.105469,0.1054688 0.09375,0 0.996094,-0.6796875 1.582031,-1.9453125 0.503907,-1.1015625 0.632813,-2.203125 0.632813,-3.046875 z m 0,0"
         style="fill:#000000;fill-opacity:1;fill-rule:nonzero;stroke:none" />
    </g>
    <path
       id="path14"
       d="m 116.06143,0 h 68.47602"
       style="fill:none;stroke:#000000;stroke-width:0.3985;stroke-linecap:butt;stroke-linejoin:miter;stroke-miterlimit:10;stroke-dasharray:none;stroke-opacity:1"
       transform="matrix(1.3333333,0,0,-1.3333333,0.26533333,22.404)" />
    <path
       id="path15"
       d="m 2.39102,0 c -0.99626,0.19925 -2.78952,0.59775 -3.98503,1.49438 0.99626,-1.09588 0.99626,-1.89288 0,-2.98876 C -0.3985,-0.59775 1.39476,-0.19925 2.39102,0 Z"
       style="fill:#000000;fill-opacity:1;fill-rule:nonzero;stroke:none"
       transform="matrix(1.3333333,0,0,-1.3333333,246.31527,22.404)" />
    <g
       id="g15"
       aria-label="e(t)"
       transform="matrix(1.3333333,0,0,1.3333333,191.6,14.390667)">
      <path
         id="path16"
         d="m 1.8644531,-2.2969063 c 0.2929688,0 1.03125,-0.023437 1.5234375,-0.234375 0.703125,-0.2929687 0.75,-0.890625 0.75,-1.0195312 0,-0.4453125 -0.3867187,-0.8554688 -1.0664062,-0.8554688 -1.1132813,0 -2.61328127,0.9726563 -2.61328127,2.7070313 0,1.01953125 0.58593747,1.8046875 1.57031247,1.8046875 1.4179688,0 2.2617188,-1.0546875 2.2617188,-1.171875 0,-0.058594 -0.070312,-0.1289063 -0.1289063,-0.1289063 -0.046875,0 -0.070312,0.023437 -0.1289062,0.09375 C 3.2472656,-0.1055 2.1574219,-0.1055 2.0402344,-0.1055 c -0.7734375,0 -0.8671875,-0.84375 -0.8671875,-1.1601563 0,-0.1171875 0.011719,-0.4335937 0.1640625,-1.03125 z m -0.46875,-0.2226562 c 0.3867188,-1.5117188 1.4179688,-1.6640625 1.6757813,-1.6640625 0.46875,0 0.7382812,0.2929687 0.7382812,0.6328125 0,1.03125 -1.59375,1.03125 -2.0039062,1.03125 z m 0,0"
         style="fill:#000000;fill-opacity:1;fill-rule:nonzero;stroke:none" />
      <path
         id="path17"
         d="m 7.9318359,2.3905937 c 0,-0.035156 0,-0.046875 -0.1640625,-0.2226562 C 6.5255859,0.91403125 6.1974609,-0.96096875 6.1974609,-2.496125 c 0,-1.7226563 0.3867188,-3.4570313 1.6054688,-4.7109375 0.1289062,-0.1171875 0.1289062,-0.1289063 0.1289062,-0.1640625 0,-0.070312 -0.035156,-0.1054688 -0.09375,-0.1054688 -0.1054687,0 -0.9960937,0.6796875 -1.5820312,1.9453125 -0.515625,1.1015625 -0.6328125,2.203125 -0.6328125,3.0351563 0,0.7851562 0.1171875,1.9921875 0.65625,3.1171875 0.5976562,1.21875 1.453125,1.875 1.5585937,1.875 0.058594,0 0.09375,-0.035156 0.09375,-0.1054688 z m 0,0"
         style="fill:#000000;fill-opacity:1;fill-rule:nonzero;stroke:none" />
      <path
         id="path18"
         d="m 10.562695,-3.9844063 h 0.9375 c 0.199219,0 0.304688,0 0.304688,-0.1992187 0,-0.1054688 -0.105469,-0.1054688 -0.28125,-0.1054688 h -0.878906 c 0.363281,-1.4179687 0.410156,-1.6171875 0.410156,-1.6757812 0,-0.1757813 -0.117188,-0.2695313 -0.292969,-0.2695313 -0.02344,0 -0.304687,0.011719 -0.398437,0.3515625 l -0.3867192,1.59375 h -0.9375 c -0.1992187,0 -0.2929687,0 -0.2929687,0.1875 0,0.1171875 0.070312,0.1171875 0.2695312,0.1171875 h 0.8789063 c -0.7148438,2.8242188 -0.75,3.00000005 -0.75,3.1757813 0,0.5390625 0.375,0.9140625 0.9140624,0.9140625 1.007813,0 1.582031,-1.453125 1.582031,-1.5351563 0,-0.09375 -0.08203,-0.09375 -0.117187,-0.09375 -0.09375,0 -0.105469,0.023437 -0.152344,0.140625 -0.433594,1.03125005 -0.960937,1.2773438 -1.300781,1.2773438 -0.1992189,0 -0.3046877,-0.12890625 -0.3046877,-0.45703125 0,-0.24609375 0.023437,-0.31640625 0.058594,-0.48046875 z m 0,0"
         style="fill:#000000;fill-opacity:1;fill-rule:nonzero;stroke:none" />
      <path
         id="path19"
         d="m 14.992383,-2.496125 c 0,-0.7734375 -0.117188,-1.9804688 -0.65625,-3.1054688 -0.597656,-1.21875 -1.464844,-1.875 -1.558594,-1.875 -0.05859,0 -0.105469,0.046875 -0.105469,0.1054688 0,0.035156 0,0.046875 0.199219,0.234375 0.972656,0.984375 1.535156,2.5664062 1.535156,4.640625 0,1.7109375 -0.363281,3.45703125 -1.59375,4.7226562 -0.140625,0.1171875 -0.140625,0.1289063 -0.140625,0.1640625 0,0.058594 0.04687,0.1054688 0.105469,0.1054688 0.09375,0 0.996094,-0.6796875 1.582031,-1.9453125 0.503907,-1.1015625 0.632813,-2.203125 0.632813,-3.046875 z m 0,0"
         style="fill:#000000;fill-opacity:1;fill-rule:nonzero;stroke:none" />
    </g>
    <path
       id="path20"
       d="m 243.533,0 h 54.30262"
       style="fill:none;stroke:#000000;stroke-width:0.3985;stroke-linecap:butt;stroke-linejoin:miter;stroke-miterlimit:10;stroke-dasharray:none;stroke-opacity:1"
       transform="matrix(1.3333333,0,0,-1.3333333,0.26533333,22.404)" />
    <path
       id="path21"
       d="m 2.39102,0 c -0.99626,0.19925 -2.78952,0.59775 -3.98503,1.49438 0.99626,-1.09588 0.99626,-1.89288 0,-2.98876 C -0.3985,-0.59775 1.39476,-0.19925 2.39102,0 Z"
       style="fill:#000000;fill-opacity:1;fill-rule:nonzero;stroke:none"
       transform="matrix(1.3333333,0,0,-1.3333333,397.37949,22.404)" />
    <g
       id="g21"
       aria-label="v&#10;out&#10;(t)∝m(t)"
       transform="matrix(1.3333333,0,0,1.3333333,326.02265,14.390667)">
      <path
         id="path22"
         d="m 4.6646719,-3.7031563 c 0,-0.5390625 -0.2578125,-0.703125 -0.4453125,-0.703125 -0.2460938,0 -0.4804688,0.2578125 -0.4804688,0.4804688 0,0.1289062 0.046875,0.1875 0.1523438,0.3046875 0.2109375,0.1992187 0.3398437,0.4570312 0.3398437,0.8085937 0,0.421875 -0.609375,2.7070313 -1.7695312,2.7070313 -0.5039063,0 -0.7382813,-0.3515625 -0.7382813,-0.8671875 0,-0.5625 0.2695313,-1.2890625 0.5742188,-2.1210938 0.070312,-0.1640625 0.1289062,-0.3046875 0.1289062,-0.4921875 0,-0.4453125 -0.328125,-0.8203125 -0.8203125,-0.8203125 -0.93749997,0 -1.31249997,1.453125 -1.31249997,1.5351563 0,0.1054687 0.09375,0.1054687 0.1171875,0.1054687 0.09375,0 0.10546875,-0.023437 0.15234375,-0.1875 C 0.85607813,-3.94925 1.2896719,-4.183625 1.5709219,-4.183625 c 0.082031,0 0.2578125,0 0.2578125,0.3164062 0,0.2460938 -0.1054688,0.515625 -0.1757813,0.703125 -0.4335937,1.1484375 -0.5625,1.6054688 -0.5625,2.0390625 0,1.07812505 0.8671875,1.2304688 1.3359375,1.2304688 1.6640625,0 2.2382813,-3.2929688 2.2382813,-3.8085938 z m 0,0"
         style="fill:#000000;fill-opacity:1;fill-rule:nonzero;stroke:none" />
      <path
         id="path23"
         d="m 8.5318594,-0.35745313 c 0,-0.77343747 -0.5742188,-1.21874997 -1.265625,-1.21874997 -1.03125,0 -2.0039063,0.96093747 -2.0039063,1.92187497 0,0.69140623 0.5039063,1.21875003 1.265625,1.21875003 0.9960938,0 2.0039063,-0.92578128 2.0039063,-1.92187503 z M 6.5396719,1.3652031 c -0.3515625,0 -0.703125,-0.2226562 -0.703125,-0.77343748 0,-0.28125 0.140625,-0.9609375 0.4101562,-1.359375 0.2929688,-0.43359372 0.703125,-0.62109372 1.0195313,-0.62109372 0.375,0 0.6914062,0.2578125 0.6914062,0.77343747 0,0.17578125 -0.082031,0.85546875 -0.3867187,1.34765625 C 7.3013906,1.1425469 6.8912344,1.3652031 6.5396719,1.3652031 Z M 11.7135,0.36910937 c -0.03516,0.140625 -0.105469,0.3984375 -0.117187,0.41015625 -0.128907,0.2109375 -0.410157,0.58593748 -0.84375,0.58593748 -0.480469,0 -0.480469,-0.44531248 -0.480469,-0.57421873 0,-0.41015625 0.199219,-0.90234375 0.386719,-1.41796875 0.05859,-0.140625 0.105468,-0.24609375 0.105468,-0.3515625 0,-0.36328122 -0.304687,-0.59765622 -0.667968,-0.59765622 -0.6914067,0 -1.007813,0.94921872 -1.007813,1.06640622 0,0.0820313 0.09375,0.0820313 0.1171875,0.0820313 0.09375,0 0.1054688,-0.0351563 0.1289063,-0.10546875 0.1640625,-0.57421867 0.46875,-0.85546867 0.7382812,-0.85546867 0.128906,0 0.175781,0.082031 0.175781,0.2460937 0,0.16406247 -0.04687,0.30468747 -0.117187,0.46874997 -0.386719,0.96093745 -0.386719,1.1601562 -0.386719,1.3476562 0,0.1171875 0,0.44531253 0.269531,0.66796873 0.199219,0.1640625 0.46875,0.2226563 0.714844,0.2226563 0.433594,0 0.679688,-0.234375 0.902344,-0.4570313 0.152344,0.4453125 0.621094,0.4570313 0.703125,0.4570313 0.234375,0 0.421875,-0.140625 0.550781,-0.375 0.152344,-0.26953128 0.257813,-0.66796878 0.257813,-0.69140628 0,-0.09375 -0.105469,-0.09375 -0.117188,-0.09375 -0.105469,0 -0.105469,0.0351563 -0.164062,0.22265625 -0.08203,0.328125 -0.210938,0.73828123 -0.503907,0.73828123 -0.175781,0 -0.234375,-0.1523437 -0.234375,-0.3398437 0,-0.11718753 0.05859,-0.36328128 0.105469,-0.55078128 0.04687,-0.1875 0.117188,-0.46875 0.152344,-0.62109375 l 0.164062,-0.62109375 c 0.04687,-0.17578125 0.117188,-0.48046872 0.117188,-0.51562502 0,-0.140625 -0.105469,-0.2226562 -0.222656,-0.2226562 -0.257813,0 -0.316407,0.1992187 -0.363282,0.421875 z m 3.46875,-1.62890627 h 0.714844 c 0.128906,0 0.222656,0 0.222656,-0.1523437 0,-0.09375 -0.09375,-0.09375 -0.210937,-0.09375 h -0.65625 l 0.257812,-1.0429688 c 0,-0.023437 0.02344,-0.058594 0.02344,-0.09375 0,-0.1289062 -0.105469,-0.2226562 -0.246094,-0.2226562 -0.175781,0 -0.28125,0.1171875 -0.328125,0.3046875 -0.04687,0.1757812 0.04687,-0.1640625 -0.257813,1.0546875 H 13.98694 c -0.128907,0 -0.222657,0 -0.222657,0.1523437 0,0.09375 0.08203,0.09375 0.210938,0.09375 h 0.65625 l -0.410156,1.64062502 c -0.03516,0.17578125 -0.105469,0.43359375 -0.105469,0.515625 0,0.42187498 0.351562,0.66796878 0.75,0.66796878 0.773437,0 1.21875,-0.97265628 1.21875,-1.06640628 0,-0.09375 -0.09375,-0.09375 -0.117188,-0.09375 -0.08203,0 -0.09375,0.0117188 -0.140625,0.12890625 -0.199218,0.4453125 -0.550781,0.83203123 -0.9375,0.83203123 -0.152343,0 -0.246093,-0.082031 -0.246093,-0.3398437 0,-0.0703125 0.02344,-0.21093753 0.04687,-0.28125003 z m 0,0"
         style="fill:#000000;fill-opacity:1;fill-rule:nonzero;stroke:none" />
      <path
         id="path24"
         d="m 20.274047,2.3905937 c 0,-0.035156 0,-0.046875 -0.164063,-0.2226562 -1.242187,-1.25390625 -1.570312,-3.12890625 -1.570312,-4.6640625 0,-1.7226563 0.386719,-3.4570313 1.605469,-4.7109375 0.128906,-0.1171875 0.128906,-0.1289063 0.128906,-0.1640625 0,-0.070312 -0.03516,-0.1054688 -0.09375,-0.1054688 -0.105469,0 -0.996094,0.6796875 -1.582031,1.9453125 -0.515625,1.1015625 -0.632813,2.203125 -0.632813,3.0351563 0,0.7851562 0.117188,1.9921875 0.65625,3.1171875 0.597656,1.21875 1.453125,1.875 1.558594,1.875 0.05859,0 0.09375,-0.035156 0.09375,-0.1054688 z m 0,0"
         style="fill:#000000;fill-opacity:1;fill-rule:nonzero;stroke:none" />
      <path
         id="path25"
         d="m 22.904906,-3.9844063 h 0.9375 c 0.199219,0 0.304688,0 0.304688,-0.1992187 0,-0.1054688 -0.105469,-0.1054688 -0.28125,-0.1054688 h -0.878906 c 0.363281,-1.4179687 0.410156,-1.6171875 0.410156,-1.6757812 0,-0.1757813 -0.117188,-0.2695313 -0.292969,-0.2695313 -0.02344,0 -0.304687,0.011719 -0.398437,0.3515625 l -0.386719,1.59375 h -0.9375 c -0.199219,0 -0.292969,0 -0.292969,0.1875 0,0.1171875 0.07031,0.1171875 0.269531,0.1171875 h 0.878907 c -0.714844,2.8242188 -0.75,3.00000005 -0.75,3.1757813 0,0.5390625 0.375,0.9140625 0.914062,0.9140625 1.007813,0 1.582031,-1.453125 1.582031,-1.5351563 0,-0.09375 -0.08203,-0.09375 -0.117187,-0.09375 -0.09375,0 -0.105469,0.023437 -0.152344,0.140625 -0.433594,1.03125005 -0.960937,1.2773438 -1.300781,1.2773438 -0.199219,0 -0.304688,-0.12890625 -0.304688,-0.45703125 0,-0.24609375 0.02344,-0.31640625 0.05859,-0.48046875 z m 0,0"
         style="fill:#000000;fill-opacity:1;fill-rule:nonzero;stroke:none" />
      <path
         id="path26"
         d="m 27.334594,-2.496125 c 0,-0.7734375 -0.117188,-1.9804688 -0.65625,-3.1054688 -0.597656,-1.21875 -1.464844,-1.875 -1.558594,-1.875 -0.05859,0 -0.105469,0.046875 -0.105469,0.1054688 0,0.035156 0,0.046875 0.199219,0.234375 0.972656,0.984375 1.535156,2.5664062 1.535156,4.640625 0,1.7109375 -0.363281,3.45703125 -1.59375,4.7226562 -0.140625,0.1171875 -0.140625,0.1289063 -0.140625,0.1640625 0,0.058594 0.04687,0.1054688 0.105469,0.1054688 0.09375,0 0.996094,-0.6796875 1.582031,-1.9453125 0.503907,-1.1015625 0.632813,-2.203125 0.632813,-3.046875 z m 0,0"
         style="fill:#000000;fill-opacity:1;fill-rule:nonzero;stroke:none" />
      <path
         id="path27"
         d="m 38.291625,-0.3164375 c -0.04687,0 -0.199219,0.0117188 -0.234375,0.0117188 -0.785156,0 -1.3125,-0.7734376 -1.652344,-1.2890625 -0.09375,-0.1640625 -0.363281,-0.5742188 -0.480468,-0.7500001 0.246093,-0.5390625 0.914062,-1.7695312 2.097656,-1.7695312 0.07031,0 0.152344,0 0.269531,0.023437 0,-0.2578125 -0.01172,-0.2578125 -0.03516,-0.28125 -0.07031,-0.023437 -0.222656,-0.035156 -0.304688,-0.035156 -1.265625,0 -2.003906,1.21875 -2.238281,1.7109375 -0.398437,-0.5976562 -0.539062,-0.8203125 -0.914062,-1.1250001 -0.609375,-0.5273436 -1.148438,-0.5859374 -1.40625,-0.5859374 -1.101563,0 -1.734375,1.1132812 -1.734375,2.2617188 0,1.1132812 0.609375,2.24999995 1.710937,2.24999995 1.265625,0 2.003906,-1.20703125 2.238281,-1.71093745 0.398438,0.60937495 0.539063,0.8320312 0.902344,1.1367187 0.609375,0.52734375 1.160156,0.57421875 1.40625,0.57421875 0.117188,0 0.28125,-0.01171875 0.375,-0.03515625 z m -2.90625,-1.640625 c -0.234375,0.5390625 -0.902344,1.78125 -2.085937,1.78125 -0.972657,0 -1.429688,-1.0546875 -1.429688,-1.96875 0,-0.984375 0.5625,-1.8515625 1.382813,-1.8515625 0.796875,0 1.324218,0.7734375 1.664062,1.3007812 0.09375,0.1640625 0.363281,0.5742188 0.46875,0.7382813 z m 0,0"
         style="fill:#000000;fill-opacity:1;fill-rule:nonzero;stroke:none" />
      <path
         id="path28"
         d="m 42.484008,-0.58596875 c -0.03516,0.15234375 -0.09375,0.375 -0.09375,0.421875 0,0.1875 0.140625,0.26953125 0.292969,0.26953125 0.117187,0 0.292968,-0.0703125 0.363281,-0.26953125 0.01172,-0.0234375 0.128906,-0.4921875 0.1875,-0.73828125 l 0.222656,-0.9023438 c 0.05859,-0.2226562 0.117188,-0.4335937 0.175781,-0.6679687 0.03516,-0.1640625 0.117188,-0.4570313 0.128907,-0.4921875 0.140625,-0.3164063 0.667968,-1.21875 1.617187,-1.21875 0.445313,0 0.539063,0.3632812 0.539063,0.6914062 0,0.2578125 -0.07031,0.5390625 -0.152344,0.8320313 l -0.269531,1.1601562 -0.199219,0.75000005 c -0.04687,0.19921875 -0.140625,0.5390625 -0.140625,0.5859375 0,0.1875 0.140625,0.26953125 0.292969,0.26953125 0.304687,0 0.375,-0.24609375 0.445312,-0.5625 0.140625,-0.5625 0.515625,-2.015625 0.597656,-2.4023438 0.03516,-0.1289062 0.5625,-1.3242187 1.652344,-1.3242187 0.421875,0 0.539063,0.3398437 0.539063,0.6914062 0,0.5742188 -0.421875,1.7109375 -0.621094,2.2382813 -0.09375,0.234375 -0.128906,0.3515625 -0.128906,0.55078125 0,0.46875 0.351562,0.80859375 0.808593,0.80859375 0.9375,0 1.3125,-1.453125 1.3125,-1.5351563 0,-0.09375 -0.09375,-0.09375 -0.117187,-0.09375 -0.105469,0 -0.105469,0.023437 -0.152344,0.1757813 -0.152344,0.52734375 -0.46875,1.2421875 -1.019531,1.2421875 -0.164063,0 -0.234375,-0.10546875 -0.234375,-0.328125 0,-0.2578125 0.08203,-0.4921875 0.175781,-0.7148438 0.1875,-0.515625 0.609375,-1.6171875 0.609375,-2.1914062 0,-0.6445313 -0.398437,-1.0664063 -1.148437,-1.0664063 -0.75,0 -1.253907,0.4453125 -1.617188,0.9726563 -0.01172,-0.1289063 -0.04687,-0.46875 -0.328125,-0.7148438 -0.246094,-0.1992187 -0.5625,-0.2578125 -0.808594,-0.2578125 -0.902343,0 -1.382812,0.6445313 -1.558593,0.8671875 -0.04687,-0.5625 -0.46875,-0.8671875 -0.914063,-0.8671875 -0.457031,0 -0.644531,0.3867188 -0.738281,0.5742188 -0.175781,0.3398437 -0.304688,0.9375 -0.304688,0.9609375 0,0.1054687 0.09375,0.1054687 0.117188,0.1054687 0.09375,0 0.105469,-0.011719 0.164062,-0.234375 0.175782,-0.703125 0.375,-1.1835937 0.726563,-1.1835937 0.164062,0 0.316406,0.082031 0.316406,0.4570312 0,0.2109375 -0.03516,0.3164063 -0.164062,0.8320313 z m 0,0"
         style="fill:#000000;fill-opacity:1;fill-rule:nonzero;stroke:none" />
      <path
         id="path29"
         d="m 53.654906,2.3905937 c 0,-0.035156 0,-0.046875 -0.164062,-0.2226562 -1.242188,-1.25390625 -1.570313,-3.12890625 -1.570313,-4.6640625 0,-1.7226563 0.386719,-3.4570313 1.605469,-4.7109375 0.128906,-0.1171875 0.128906,-0.1289063 0.128906,-0.1640625 0,-0.070312 -0.03516,-0.1054688 -0.09375,-0.1054688 -0.105468,0 -0.996093,0.6796875 -1.582031,1.9453125 -0.515625,1.1015625 -0.632812,2.203125 -0.632812,3.0351563 0,0.7851562 0.117187,1.9921875 0.65625,3.1171875 0.597656,1.21875 1.453125,1.875 1.558593,1.875 0.05859,0 0.09375,-0.035156 0.09375,-0.1054688 z m 0,0"
         style="fill:#000000;fill-opacity:1;fill-rule:nonzero;stroke:none" />
      <path
         id="path30"
         d="m 56.276977,-3.9844063 h 0.9375 c 0.199218,0 0.304687,0 0.304687,-0.1992187 0,-0.1054688 -0.105469,-0.1054688 -0.28125,-0.1054688 h -0.878906 c 0.363281,-1.4179687 0.410156,-1.6171875 0.410156,-1.6757812 0,-0.1757813 -0.117187,-0.2695313 -0.292969,-0.2695313 -0.02344,0 -0.304687,0.011719 -0.398437,0.3515625 l -0.386719,1.59375 h -0.9375 c -0.199219,0 -0.292969,0 -0.292969,0.1875 0,0.1171875 0.07031,0.1171875 0.269532,0.1171875 h 0.878906 c -0.714844,2.8242188 -0.75,3.00000005 -0.75,3.1757813 0,0.5390625 0.375,0.9140625 0.914062,0.9140625 1.007813,0 1.582032,-1.453125 1.582032,-1.5351563 0,-0.09375 -0.08203,-0.09375 -0.117188,-0.09375 -0.09375,0 -0.105469,0.023437 -0.152344,0.140625 -0.433593,1.03125005 -0.960937,1.2773438 -1.300781,1.2773438 -0.199219,0 -0.304687,-0.12890625 -0.304687,-0.45703125 0,-0.24609375 0.02344,-0.31640625 0.05859,-0.48046875 z m 0,0"
         style="fill:#000000;fill-opacity:1;fill-rule:nonzero;stroke:none" />
      <path
         id="path31"
         d="m 60.715453,-2.496125 c 0,-0.7734375 -0.117187,-1.9804688 -0.65625,-3.1054688 -0.597656,-1.21875 -1.464844,-1.875 -1.558594,-1.875 -0.05859,0 -0.105468,0.046875 -0.105468,0.1054688 0,0.035156 0,0.046875 0.199218,0.234375 0.972657,0.984375 1.535157,2.5664062 1.535157,4.640625 0,1.7109375 -0.363282,3.45703125 -1.59375,4.7226562 -0.140625,0.1171875 -0.140625,0.1289063 -0.140625,0.1640625 0,0.058594 0.04687,0.1054688 0.105468,0.1054688 0.09375,0 0.996094,-0.6796875 1.582032,-1.9453125 0.503906,-1.1015625 0.632812,-2.203125 0.632812,-3.046875 z m 0,0"
         style="fill:#000000;fill-opacity:1;fill-rule:nonzero;stroke:none" />
    </g>
    <path
       id="path32"
       d="m 243.533,0 h 14.1734 v -72.80705 h -19.9598"
       style="fill:none;stroke:#000000;stroke-width:0.3985;stroke-linecap:butt;stroke-linejoin:miter;stroke-miterlimit:10;stroke-dasharray:none;stroke-opacity:1"
       transform="matrix(1.3333333,0,0,-1.3333333,0.26533333,22.404)" />
    <path
       id="path33"
       d="m 2.39102,0 c -0.99626,0.19925 -2.78952,0.59775 -3.98503,1.49438 0.99626,-1.09588 0.99626,-1.89288 0,-2.98876 C -0.3985,-0.59775 1.39476,-0.19925 2.39102,0 Z"
       style="fill:#000000;fill-opacity:1;fill-rule:nonzero;stroke:none"
       transform="matrix(-1.3333333,0,0,1.3333333,317.2608,119.48007)" />
    <path
       id="path34"
       d="M 195.10593,-72.80705 H 79.29082 v 55.27261"
       style="fill:none;stroke:#000000;stroke-width:0.3985;stroke-linecap:butt;stroke-linejoin:miter;stroke-miterlimit:10;stroke-dasharray:none;stroke-opacity:1"
       transform="matrix(1.3333333,0,0,-1.3333333,0.26533333,22.404)" />
    <path
       id="path35"
       d="m 2.39102,0 c -0.99626,0.19925 -2.78952,0.59775 -3.98503,1.49438 0.99626,-1.09588 0.99626,-1.89288 0,-2.98876 C -0.3985,-0.59775 1.39476,-0.19925 2.39102,0 Z"
       style="fill:#000000;fill-opacity:1;fill-rule:nonzero;stroke:none"
       transform="matrix(0,-1.3333333,-1.3333333,0,105.98643,45.783253)" />
    <g
       id="g35"
       aria-label="θ&#10;out&#10;(t)"
       transform="matrix(1.3333333,0,0,1.3333333,164.412,134.13467)">
      <path
         id="path36"
         d="m 4.5337734,-4.9818594 c 0,-0.65625 -0.1875,-2.0390625 -1.1953125,-2.0390625 -1.3828125,0 -2.91796871,2.8007813 -2.91796871,5.0859375 0,0.93750003 0.28125,2.03906253 1.19531251,2.03906253 1.40625,0 2.9179687,-2.85937503 2.9179687,-5.08593753 z m -3.0585937,1.359375 c 0.1640625,-0.6328125 0.3632812,-1.4296875 0.7617187,-2.1328125 0.2695313,-0.4921875 0.6445313,-1.0546875 1.0898438,-1.0546875 0.4921875,0 0.5507812,0.6445313 0.5507812,1.2070313 0,0.4921875 -0.082031,0.9960937 -0.328125,1.9804687 z m 1.9921875,0.328125 c -0.1171875,0.4570313 -0.3164063,1.3007813 -0.703125,2.015625 -0.3398438,0.67968753 -0.7265625,1.17187503 -1.1484375,1.17187503 -0.328125,0 -0.5390625,-0.29296875 -0.5390625,-1.21875003 0,-0.421875 0.058594,-0.9960937 0.3164062,-1.96875 z m 0,0"
         style="fill:#000000;fill-opacity:1;fill-rule:nonzero;stroke:none" />
      <path
         id="path37"
         d="m 8.3804531,-0.3588125 c 0,-0.7734375 -0.5742187,-1.21875 -1.265625,-1.21875 -1.03125,0 -2.0039062,0.9609375 -2.0039062,1.921875 0,0.6914063 0.5039062,1.21875 1.265625,1.21875 0.9960937,0 2.0039062,-0.92578125 2.0039062,-1.921875 z M 6.3882656,1.3638438 c -0.3515625,0 -0.703125,-0.2226563 -0.703125,-0.77343755 0,-0.28125 0.140625,-0.9609375 0.4101563,-1.359375 0.2929687,-0.43359375 0.703125,-0.62109375 1.0195312,-0.62109375 0.375,0 0.6914063,0.2578125 0.6914063,0.7734375 0,0.17578125 -0.082031,0.85546875 -0.3867188,1.34765625 C 7.1499844,1.1411875 6.7398281,1.3638438 6.3882656,1.3638438 Z M 11.562094,0.36775 C 11.526938,0.508375 11.456625,0.7661875 11.444906,0.77790625 11.316,0.98884375 11.03475,1.3638438 10.601156,1.3638438 c -0.480468,0 -0.480468,-0.44531255 -0.480468,-0.5742188 0,-0.41015625 0.199218,-0.90234375 0.386718,-1.41796875 0.05859,-0.140625 0.105469,-0.24609375 0.105469,-0.3515625 0,-0.36328125 -0.304687,-0.59765625 -0.6679687,-0.59765625 -0.6914063,0 -1.0078125,0.94921875 -1.0078125,1.06640625 0,0.0820313 0.09375,0.0820313 0.1171875,0.0820313 0.09375,0 0.1054687,-0.0351563 0.1289062,-0.10546875 0.1640625,-0.5742187 0.46875,-0.8554687 0.7382813,-0.8554687 0.1289062,0 0.1757812,0.082031 0.1757812,0.2460938 0,0.1640624 -0.04687,0.3046874 -0.1171875,0.4687499 -0.3867187,0.9609375 -0.3867187,1.16015625 -0.3867187,1.34765625 0,0.1171875 0,0.44531255 0.2695312,0.66796885 0.199219,0.1640625 0.46875,0.2226562 0.714844,0.2226562 0.433594,0 0.679687,-0.234375 0.902344,-0.4570312 0.152343,0.4453125 0.621093,0.4570312 0.703125,0.4570312 0.234375,0 0.421875,-0.140625 0.550781,-0.375 0.152344,-0.2695313 0.257812,-0.6679688 0.257812,-0.6914063 0,-0.09375 -0.105468,-0.09375 -0.117187,-0.09375 -0.105469,0 -0.105469,0.0351563 -0.164063,0.22265625 -0.08203,0.328125 -0.210937,0.73828135 -0.503906,0.73828135 -0.175781,0 -0.234375,-0.1523438 -0.234375,-0.3398438 0,-0.11718755 0.05859,-0.3632813 0.105469,-0.5507813 0.04687,-0.1875 0.117187,-0.46875 0.152344,-0.62109375 l 0.164062,-0.62109375 c 0.04687,-0.1757813 0.117188,-0.4804688 0.117188,-0.515625 0,-0.140625 -0.105469,-0.2226563 -0.222657,-0.2226563 -0.257812,0 -0.316406,0.1992188 -0.363281,0.421875 z m 3.46875,-1.6289062 h 0.714844 c 0.128906,0 0.222656,0 0.222656,-0.1523438 0,-0.09375 -0.09375,-0.09375 -0.210938,-0.09375 h -0.65625 l 0.257813,-1.0429687 c 0,-0.023437 0.02344,-0.058594 0.02344,-0.09375 0,-0.1289063 -0.105468,-0.2226563 -0.246093,-0.2226563 -0.175782,0 -0.28125,0.1171875 -0.328125,0.3046875 -0.04687,0.1757813 0.04687,-0.1640625 -0.257813,1.0546875 h -0.714844 c -0.128906,0 -0.222656,0 -0.222656,0.1523438 0,0.09375 0.08203,0.09375 0.210938,0.09375 h 0.65625 l -0.410157,1.64062495 c -0.03516,0.17578125 -0.105468,0.43359375 -0.105468,0.515625 0,0.42187505 0.351562,0.66796875 0.75,0.66796875 0.773437,0 1.21875,-0.97265625 1.21875,-1.06640625 0,-0.09375 -0.09375,-0.09375 -0.117188,-0.09375 -0.08203,0 -0.09375,0.0117188 -0.140625,0.12890625 -0.199219,0.4453125 -0.550781,0.8320313 -0.9375,0.8320313 -0.152344,0 -0.246094,-0.082031 -0.246094,-0.3398438 0,-0.0703125 0.02344,-0.2109375 0.04687,-0.28125 z m 0,0"
         style="fill:#000000;fill-opacity:1;fill-rule:nonzero;stroke:none" />
      <path
         id="path38"
         d="m 20.119711,2.3892344 c 0,-0.035156 0,-0.046875 -0.164063,-0.2226563 -1.242187,-1.25390622 -1.570312,-3.12890622 -1.570312,-4.6640625 0,-1.7226562 0.386719,-3.4570312 1.605469,-4.7109375 0.128906,-0.1171875 0.128906,-0.1289062 0.128906,-0.1640625 0,-0.070312 -0.03516,-0.1054687 -0.09375,-0.1054687 -0.105469,0 -0.996094,0.6796875 -1.582031,1.9453125 -0.515625,1.1015625 -0.632813,2.203125 -0.632813,3.0351562 0,0.7851563 0.117188,1.99218753 0.65625,3.11718753 0.597656,1.21874997 1.453125,1.87499997 1.558594,1.87499997 0.05859,0 0.09375,-0.035156 0.09375,-0.1054687 z m 0,0"
         style="fill:#000000;fill-opacity:1;fill-rule:nonzero;stroke:none" />
      <path
         id="path39"
         d="m 22.7535,-3.9857656 h 0.9375 c 0.199219,0 0.304688,0 0.304688,-0.1992188 0,-0.1054687 -0.105469,-0.1054687 -0.28125,-0.1054687 h -0.878907 c 0.363282,-1.4179688 0.410157,-1.6171875 0.410157,-1.6757813 0,-0.1757812 -0.117188,-0.2695312 -0.292969,-0.2695312 -0.02344,0 -0.304688,0.011719 -0.398438,0.3515625 l -0.386718,1.59375 h -0.9375 c -0.199219,0 -0.292969,0 -0.292969,0.1875 0,0.1171875 0.07031,0.1171875 0.269531,0.1171875 h 0.878906 c -0.714843,2.8242187 -0.75,2.99999998 -0.75,3.17578123 0,0.5390625 0.375,0.9140625 0.914063,0.9140625 1.007812,0 1.582031,-1.45312503 1.582031,-1.53515623 0,-0.09375 -0.08203,-0.09375 -0.117187,-0.09375 -0.09375,0 -0.105469,0.023437 -0.152344,0.140625 -0.433594,1.03124998 -0.960938,1.27734373 -1.300781,1.27734373 -0.199219,0 -0.304688,-0.12890625 -0.304688,-0.45703125 0,-0.24609375 0.02344,-0.31640625 0.05859,-0.48046878 z m 0,0"
         style="fill:#000000;fill-opacity:1;fill-rule:nonzero;stroke:none" />
      <path
         id="path40"
         d="m 27.183188,-2.4974844 c 0,-0.7734375 -0.117188,-1.9804687 -0.65625,-3.1054687 -0.597657,-1.21875 -1.464844,-1.875 -1.558594,-1.875 -0.05859,0 -0.105469,0.046875 -0.105469,0.1054687 0,0.035156 0,0.046875 0.199219,0.234375 0.972656,0.984375 1.535156,2.5664063 1.535156,4.640625 0,1.71093753 -0.363281,3.45703128 -1.59375,4.7226563 -0.140625,0.1171875 -0.140625,0.1289062 -0.140625,0.1640625 0,0.058594 0.04687,0.1054687 0.105469,0.1054687 0.09375,0 0.996094,-0.6796875 1.582031,-1.94531247 0.503906,-1.1015625 0.632813,-2.20312503 0.632813,-3.04687503 z m 0,0"
         style="fill:#000000;fill-opacity:1;fill-rule:nonzero;stroke:none" />
    </g>
  </g>
</svg>
